<?xml version="1.0" standalone="no"?>
<!DOCTYPE svg PUBLIC "-//W3C//DTD SVG 20010904//EN"
 "http://www.w3.org/TR/2001/REC-SVG-20010904/DTD/svg10.dtd">
<svg version="1.0" xmlns="http://www.w3.org/2000/svg"
 width="1920.000000pt" height="1080.000000pt" viewBox="0 0 1920.000000 1080.000000"
 preserveAspectRatio="xMidYMid meet">

<g transform="translate(0.000000,1080.000000) scale(0.100000,-0.100000)"
fill="#000000" stroke="none">
<path d="M0 5400 l0 -5400 8615 0 8615 0 0 40 c0 30 7 47 25 65 l24 25 961 0
960 0 0 5335 0 5335 -9600 0 -9600 0 0 -5400z m5845 2540 c176 -22 1362 -170
2635 -329 1273 -159 2470 -308 2660 -331 190 -23 541 -66 780 -95 239 -30 626
-77 860 -105 234 -28 428 -55 433 -59 4 -4 49 -69 100 -143 178 -263 213 -315
349 -514 76 -111 138 -205 138 -208 0 -4 14 -25 31 -46 19 -24 29 -45 25 -55
-3 -9 -2 -14 3 -11 7 5 71 -65 71 -78 0 -3 12 -22 26 -43 l26 -38 -44 -6 c-54
-8 -162 -35 -208 -54 -19 -7 -70 -24 -114 -36 -43 -13 -73 -25 -67 -27 7 -2
24 1 39 6 15 6 81 22 147 37 66 15 127 30 135 32 8 3 32 6 53 6 20 1 37 5 37
9 0 18 40 6 59 -18 21 -27 27 -46 14 -42 -8 2 -75 -13 -143 -33 -19 -6 -57
-17 -85 -25 -27 -7 -72 -20 -100 -29 l-50 -15 50 4 c27 2 51 8 52 13 2 5 20 7
40 5 23 -3 33 -1 29 6 -3 5 4 10 17 9 27 0 114 9 183 21 44 7 53 6 63 -10 14
-22 14 -24 -1 -26 -32 -4 -188 -47 -188 -52 0 -3 22 -5 50 -5 27 0 50 4 50 9
0 5 16 6 35 3 19 -3 48 -2 64 3 21 6 31 5 34 -4 3 -6 -3 -12 -12 -13 -24 -1
-303 -72 -326 -83 -124 -56 -145 -68 -174 -94 -19 -17 -20 -17 -18 4 1 15 11
26 29 32 16 6 28 17 27 26 0 11 -2 12 -6 5 -6 -16 -35 -17 -50 -2 -19 19 -56
2 -105 -48 -41 -41 -50 -57 -59 -108 -13 -69 -31 -109 -67 -148 l-26 -27 59 2
c55 3 61 5 82 37 13 19 23 45 23 58 0 14 4 21 10 18 6 -3 10 2 11 12 1 43 9
77 18 86 17 17 21 3 11 -34 -6 -18 -10 -59 -10 -90 0 -52 -3 -59 -45 -105 -24
-27 -45 -52 -45 -55 0 -7 71 -29 94 -29 9 0 19 8 23 18 3 9 19 29 34 43 15 15
25 30 22 33 -4 3 1 12 10 19 16 11 16 18 3 84 l-13 72 31 3 31 4 -25 11 -25
12 25 1 c44 1 73 12 58 21 -10 7 -10 9 3 9 9 0 27 13 40 28 48 56 198 129 235
115 8 -3 21 0 28 7 8 6 30 12 49 13 26 2 33 6 29 17 -4 11 0 11 15 -3 16 -14
22 -15 26 -5 4 10 8 10 16 -2 15 -21 6 -27 -52 -35 -28 -4 -101 -23 -162 -43
-103 -33 -114 -39 -169 -93 -32 -33 -62 -59 -67 -59 -17 0 -31 -70 -20 -102
19 -54 13 -83 -24 -122 -44 -46 -51 -75 -31 -115 16 -30 16 -31 -10 -37 -47
-12 -165 11 -232 45 -64 33 -134 61 -151 61 -12 0 -21 4 -21 9 0 5 -14 13 -32
16 -18 4 -39 11 -48 16 -47 27 -362 120 -373 110 -4 -4 17 -16 45 -26 52 -19
52 -19 23 -26 l-30 -6 34 -15 c22 -10 29 -17 20 -21 -11 -4 -9 -10 8 -25 l22
-19 -27 -1 c-15 0 -52 11 -82 25 -83 37 -179 82 -238 111 -45 23 -56 25 -73
14 -11 -7 -24 -10 -29 -7 -6 4 -7 -2 -3 -12 6 -16 5 -16 -10 -4 -9 7 -14 18
-10 23 3 6 0 9 -8 6 -14 -5 -244 220 -309 302 -19 24 -73 84 -120 134 -47 50
-97 107 -110 126 -13 19 -43 56 -66 81 -34 37 -43 56 -49 99 -7 48 -5 56 14
72 12 9 49 22 81 29 55 11 59 13 49 32 -9 16 -7 24 15 44 14 13 26 29 26 36
-1 17 -25 47 -38 47 -6 0 -12 17 -14 37 -2 20 -9 38 -16 41 -9 3 -13 -3 -10
-16 5 -36 -12 -29 -35 13 -12 22 -25 42 -28 45 -7 6 -24 71 -21 83 4 15 -19
101 -39 143 -24 54 -135 174 -146 158 -5 -6 -19 -17 -32 -23 -19 -11 -22 -18
-17 -43 3 -16 15 -42 26 -58 32 -45 24 -45 -26 -1 -26 23 -59 47 -73 54 -25
13 -28 12 -39 -12 -15 -31 -15 -58 -1 -67 8 -5 6 -10 -5 -16 -11 -6 -22 -6
-32 3 -19 16 -29 5 -11 -12 18 -19 30 -52 15 -43 -6 4 -22 8 -34 10 -20 2 -22
-1 -14 -16 14 -26 13 -29 -10 -23 -18 5 -19 2 -14 -27 6 -30 5 -32 -14 -25
-36 11 -44 -4 -22 -36 26 -35 8 -40 -27 -7 -33 31 -28 9 7 -31 37 -42 38 -48
3 -25 -58 37 -72 49 -73 63 0 11 -3 12 -11 4 -8 -8 -8 -15 0 -25 6 -7 23 -29
38 -48 l28 -35 -25 16 c-14 8 -33 18 -43 22 -15 6 -16 4 -6 -16 6 -12 25 -37
42 -54 42 -45 17 -42 -35 4 -35 30 -38 32 -18 8 14 -16 30 -34 35 -40 6 -5 19
-21 30 -34 l20 -24 -33 19 c-19 10 -51 38 -73 61 -21 24 -39 40 -39 37 0 -11
100 -132 113 -137 6 -2 9 -8 4 -12 -4 -5 -25 7 -48 25 -58 46 -35 8 35 -58 31
-29 56 -55 56 -58 0 -12 -50 24 -102 74 -32 30 -58 50 -58 45 0 -12 99 -114
147 -150 18 -14 32 -28 29 -30 -5 -5 -109 68 -114 79 -2 5 -9 8 -15 8 -6 0 18
-27 53 -61 39 -37 53 -54 35 -44 -16 10 -42 29 -57 43 -15 14 -30 23 -33 20
-4 -4 82 -87 140 -133 15 -12 11 -12 -14 2 -43 23 -150 125 -186 178 l-27 40
41 -45 c22 -25 41 -39 41 -32 0 6 -3 12 -7 12 -5 0 -26 27 -47 61 -29 45 -41
57 -48 47 -8 -10 -9 -9 -5 4 4 10 -15 49 -49 98 -30 45 -54 86 -54 92 0 6 11
-6 25 -26 14 -20 25 -41 25 -46 0 -6 4 -10 8 -10 5 0 14 -12 21 -26 6 -15 14
-24 17 -21 5 4 -18 49 -77 149 -16 26 -25 48 -20 48 4 0 13 -10 20 -22 50 -97
151 -239 151 -214 0 3 -23 53 -51 112 -37 76 -52 121 -55 160 -2 29 -10 72
-18 94 -7 22 -12 40 -10 40 6 0 42 -83 49 -115 5 -23 8 -26 15 -14 12 21 -4
128 -24 168 -18 33 -11 42 10 14 11 -15 12 -13 5 17 -8 34 -55 129 -70 140
-20 14 -50 81 -57 125 -8 50 -8 50 -15 16 -5 -24 -1 -46 13 -78 25 -56 18 -66
-12 -16 -21 36 -26 63 -47 286 -3 37 -9 67 -12 67 -3 0 -15 3 -27 6 -19 5 -21
1 -24 -43 -1 -26 -4 -60 -5 -75 -1 -16 -4 -47 -5 -70 -2 -38 -3 -40 -11 -18
-5 16 -6 4 -2 -35 3 -32 12 -65 19 -73 13 -13 19 -42 9 -42 -3 0 -18 19 -35
42 -26 35 -30 50 -30 102 1 34 7 79 15 100 8 22 11 44 8 49 -3 6 -1 7 4 4 6
-4 13 7 17 25 7 37 10 34 -31 41 -31 6 -33 5 -33 -22 0 -16 7 -34 15 -41 8 -7
15 -17 15 -23 0 -6 -7 -2 -15 9 -14 19 -14 18 -16 -3 -2 -13 -4 -35 -6 -50 -9
-63 -9 -183 -1 -171 6 9 7 6 3 -8 -5 -20 14 -53 57 -96 27 -27 51 -79 36 -76
-9 2 -12 -7 -11 -27 l2 -29 -18 29 c-44 74 -112 227 -130 295 -12 41 -23 108
-26 149 -2 41 -6 75 -7 77 -2 1 -15 5 -31 9 -23 6 -27 4 -27 -13 0 -11 -3 -29
-6 -39 -5 -15 -4 -15 5 -3 14 19 15 -3 2 -28 -5 -9 -12 -38 -15 -64 -4 -26 -9
-55 -12 -63 -4 -8 -1 -15 6 -15 7 0 10 -8 7 -19 -2 -11 3 -28 12 -38 22 -26
43 -63 34 -63 -12 0 -73 63 -73 76 0 7 -4 15 -8 18 -13 8 -14 -74 -1 -125 7
-26 17 -45 22 -42 6 3 7 1 3 -6 -10 -15 13 -43 27 -34 6 4 7 1 2 -6 -4 -8 4
-25 22 -44 68 -75 73 -87 10 -27 -36 36 -73 64 -82 62 -8 -1 -27 15 -42 37
-16 22 -33 40 -39 41 -7 0 -14 7 -18 15 -11 30 -28 16 -22 -17 3 -18 8 -46 11
-63 2 -16 13 -36 22 -45 10 -8 31 -31 48 -50 19 -22 10 -16 -23 15 -73 68 -96
109 -93 159 5 101 -35 383 -58 407 -3 4 -26 10 -50 14 l-45 7 16 -23 c28 -44
69 -202 75 -292 4 -56 9 -83 15 -75 5 8 7 -2 3 -27 -3 -22 -2 -34 1 -27 4 9
10 5 20 -13 17 -33 17 -36 2 -32 -17 3 -37 -55 -20 -61 6 -2 10 -7 7 -12 -5
-9 82 -90 97 -90 5 0 6 -4 3 -10 -3 -5 1 -10 10 -10 9 0 13 -4 10 -10 -10 -16
-17 -12 -55 23 -19 18 -46 41 -60 50 -25 16 -25 16 -25 -13 0 -15 3 -26 6 -24
4 2 10 -8 14 -24 3 -15 30 -51 58 -80 32 -33 44 -51 32 -47 -11 4 7 -18 40
-49 33 -31 63 -56 68 -56 4 0 7 -5 7 -11 0 -6 -30 16 -67 48 -38 33 -80 68
-95 78 -16 9 -28 22 -28 28 0 6 10 1 23 -11 41 -38 43 -24 2 18 -21 21 -42 37
-47 33 -6 -3 -5 -10 1 -16 27 -27 7 -25 -26 2 -27 22 -39 27 -45 18 -6 -9 -8
-8 -8 3 -1 8 -6 4 -11 -9 -7 -18 -6 -27 3 -33 11 -6 10 -10 -1 -17 -10 -6 -3
-19 30 -53 24 -24 62 -59 84 -77 35 -29 34 -29 -15 5 -66 45 -114 84 -105 84
4 0 0 7 -9 15 -8 9 -19 14 -24 13 -5 -2 -22 9 -38 24 -43 41 -71 72 -56 64 15
-9 17 50 2 59 -7 5 -8 11 -1 19 6 7 7 26 2 46 -9 40 -48 120 -59 121 -4 0 -17
2 -30 5 -13 2 -21 0 -17 -5 3 -6 -6 -6 -25 -1 -22 6 -28 6 -23 -3 4 -6 6 -25
5 -42 -2 -16 4 -39 13 -50 9 -11 13 -14 9 -6 -4 9 -3 12 4 7 11 -6 6 -36 -6
-36 -3 0 -15 8 -26 18 -26 22 148 -192 229 -283 80 -88 188 -223 204 -253 10
-18 9 -25 -4 -38 -14 -14 -18 -15 -33 -2 -33 29 -42 30 -39 7 3 -33 -21 -34
-35 -1 -11 26 -16 29 -36 21 -18 -7 -22 -14 -17 -29 5 -14 2 -20 -9 -20 -9 0
-16 -4 -16 -10 0 -17 -28 -11 -39 8 -10 16 -10 15 -11 -3 -1 -12 -4 -15 -7 -7
-3 7 3 22 12 32 10 11 14 24 9 31 -5 9 -2 10 9 6 10 -3 17 -2 17 3 0 6 -7 10
-16 10 -8 0 -12 5 -9 10 4 6 12 8 18 4 7 -3 3 2 -7 10 -26 21 -33 20 -47 -6
-12 -23 -30 -40 -61 -58 -26 -16 -32 6 -8 30 21 21 21 23 6 53 l-16 32 0 -30
c0 -33 -9 -49 -27 -52 -8 -2 -10 4 -6 15 6 15 5 15 -15 -1 -13 -12 -28 -16
-41 -12 -12 4 -21 2 -21 -4 0 -6 7 -11 15 -11 22 0 75 -29 75 -40 0 -6 -9 -10
-19 -10 -28 0 -52 -11 -46 -21 3 -4 -12 -17 -33 -28 -53 -27 -68 -46 -45 -56
10 -5 21 -8 24 -7 3 1 41 4 85 7 43 3 81 11 85 17 11 17 39 1 39 -22 0 -22
-47 -56 -90 -66 -14 -3 -34 -9 -45 -14 -11 -4 -29 -11 -39 -14 -43 -14 6 -24
148 -30 127 -6 153 -10 178 -27 22 -16 26 -24 18 -39 -14 -25 -62 -64 -99 -79
-31 -14 -41 -30 -18 -32 27 -3 57 3 167 31 81 20 120 25 132 19 10 -6 22 -8
27 -5 5 3 14 -8 21 -24 7 -17 16 -30 20 -30 13 0 23 -98 15 -155 -6 -50 -9
-55 -40 -65 -37 -12 -175 -4 -175 11 0 5 -8 5 -17 2 -12 -5 -3 -11 33 -24 l49
-17 -35 -2 -35 -2 30 -9 c22 -6 17 -7 -20 -3 -89 9 -193 35 -519 128 -88 25
-161 44 -163 42 -4 -4 27 -16 112 -42 33 -10 76 -26 95 -35 19 -9 42 -20 50
-23 8 -3 0 -4 -19 -1 -18 3 -45 5 -60 6 l-26 1 25 7 c15 5 -6 7 -55 7 -65 0
-103 7 -200 37 -215 67 -347 105 -338 97 4 -4 42 -19 83 -34 41 -14 68 -26 60
-27 -8 0 -4 -5 10 -10 25 -9 17 -8 -100 7 -19 2 -47 5 -62 7 -14 1 -24 6 -21
10 2 4 -6 5 -19 2 -29 -7 -166 25 -467 111 -67 19 -125 34 -126 32 -2 -2 25
-14 60 -27 35 -14 61 -29 58 -34 -9 -15 -152 1 -255 28 -161 43 -261 66 -266
60 -3 -3 2 -5 11 -5 9 0 19 -5 23 -11 9 -14 -112 -5 -196 15 -30 7 -75 14
-100 14 -49 1 -197 69 -193 89 1 5 -43 31 -99 56 -70 33 -99 51 -95 60 4 10
-17 24 -66 46 -83 37 -114 61 -96 72 8 5 -1 13 -24 23 -20 8 -55 33 -77 55
-33 33 -37 40 -23 44 13 3 8 7 -13 12 -18 4 -51 27 -75 52 l-44 45 85 -5 c98
-7 98 -6 -35 28 -106 28 -138 43 -155 74 -9 19 -7 20 45 15 30 -2 85 -11 122
-18 37 -8 69 -13 71 -11 4 3 -43 18 -208 66 -65 18 -127 43 -143 56 -34 28
-30 28 93 12 47 -6 101 -12 120 -14 19 -2 68 -10 109 -19 112 -25 95 -13 -26
19 -60 15 -132 37 -161 48 -30 10 -101 32 -159 48 -184 49 -142 59 79 18 59
-11 113 -19 120 -18 7 2 57 -7 111 -20 54 -13 100 -21 103 -18 8 8 -89 45
-206 77 -152 42 -273 80 -284 91 -15 14 11 11 114 -11 110 -23 103 -23 95 -10
-4 6 11 4 32 -4 57 -23 204 -59 210 -52 9 9 -97 53 -210 87 -56 17 -114 35
-130 39 -15 5 -31 9 -35 9 -23 3 -72 24 -72 32 0 12 1 12 100 -7 84 -16 212
-48 384 -97 49 -15 93 -24 97 -21 4 2 49 -11 98 -31 100 -39 116 -43 83 -19
-25 18 -157 64 -182 64 -10 0 -55 18 -101 39 -46 22 -165 65 -264 97 -177 56
-229 85 -79 44 42 -11 89 -22 103 -24 14 -2 68 -18 120 -35 52 -17 96 -30 98
-28 1 2 -19 16 -47 31 -29 16 -48 32 -44 38 4 7 2 8 -4 4 -11 -6 -127 47 -167
77 -10 8 45 -6 122 -33 78 -26 140 -43 137 -39 -2 4 -28 21 -57 37 -184 101
-219 123 -213 130 3 2 11 0 18 -5 7 -6 72 -29 143 -53 72 -23 147 -49 169 -57
21 -7 40 -12 42 -10 3 2 -79 51 -180 108 -102 57 -183 105 -181 108 3 2 37
-15 77 -38 40 -23 90 -46 113 -51 22 -5 60 -16 84 -25 66 -23 63 -19 -24 32
-184 106 -215 126 -210 133 3 5 0 12 -6 16 -8 4 -9 3 -5 -4 13 -22 -10 -12
-125 54 -139 79 -162 94 -156 100 2 2 34 -14 70 -36 37 -22 69 -40 73 -40 3 0
19 -9 34 -20 16 -11 32 -19 37 -18 17 4 53 -14 47 -24 -5 -7 -1 -9 9 -5 9 3
27 -3 41 -14 14 -11 30 -18 35 -14 5 3 13 1 16 -5 4 -6 16 -8 28 -4 19 6 20 5
9 -8 -11 -13 -9 -17 13 -22 14 -4 31 -3 38 1 7 4 5 -2 -3 -12 -8 -10 -9 -16
-3 -11 14 8 185 -78 175 -89 -3 -3 1 -3 9 0 9 3 26 -4 41 -17 14 -13 32 -24
39 -26 8 -2 25 -11 39 -20 22 -15 178 -82 190 -82 16 0 -529 328 -802 483
-140 80 -320 181 -401 227 -32 17 -56 34 -53 37 3 3 31 -10 63 -30 105 -62
215 -117 224 -111 5 3 8 0 7 -8 -2 -7 3 -12 10 -11 6 2 12 -2 12 -8 0 -6 7 -8
17 -5 10 4 14 4 10 0 -13 -14 31 -35 60 -28 19 4 24 3 14 -4 -16 -12 3 -27 21
-16 7 5 8 3 3 -6 -6 -10 -4 -12 9 -7 11 5 15 3 10 -5 -5 -7 1 -9 18 -5 27 7
94 -33 80 -48 -4 -4 4 -4 17 0 15 5 21 4 17 -3 -4 -7 10 -16 34 -23 22 -7 40
-15 40 -19 0 -4 25 -18 55 -31 30 -13 55 -27 55 -31 0 -5 7 -8 15 -8 8 0 15
-3 15 -7 0 -5 18 -17 40 -27 22 -11 40 -23 40 -29 0 -5 7 -6 16 -3 8 3 13 2
10 -3 -3 -5 1 -12 10 -15 10 -4 13 -2 9 7 -4 6 0 4 9 -7 8 -10 20 -15 27 -10
8 4 10 3 5 -4 -4 -7 -1 -12 8 -12 9 0 16 -5 16 -10 0 -6 17 -18 38 -28 20 -9
39 -19 42 -22 3 -4 37 -22 75 -40 39 -19 72 -38 75 -42 3 -3 30 -16 60 -27 30
-11 47 -15 36 -8 -214 140 -526 327 -836 502 -85 49 -222 126 -303 172 -149
85 -202 103 -297 103 l-35 0 30 -20 c38 -25 26 -26 -15 -2 -16 10 -27 22 -22
27 4 5 2 5 -4 2 -7 -4 -25 -3 -40 3 -16 5 -72 14 -124 19 -52 6 -160 19 -240
30 -80 11 -181 24 -225 30 -118 16 -130 20 -156 47 l-24 26 35 -6 c19 -4 179
-24 355 -46z m355 -165 c8 -6 59 -36 112 -66 53 -29 95 -55 93 -57 -2 -2 -34
14 -72 36 -37 21 -108 60 -158 87 -49 26 -94 52 -100 57 -14 12 106 -42 125
-57z m-201 -7 c55 -29 99 -54 97 -56 -3 -3 -195 94 -205 104 -14 13 20 -2 108
-48z m383 2 c18 -11 29 -20 23 -20 -5 0 -23 9 -40 20 -39 26 -25 26 17 0z
m-217 -90 c3 -6 -1 -7 -9 -4 -18 7 -21 14 -7 14 6 0 13 -4 16 -10z m295 -56
c0 -2 -9 0 -20 6 -11 6 -20 13 -20 16 0 2 9 0 20 -6 11 -6 20 -13 20 -16z
m245 -142 c-3 -3 -11 0 -18 7 -9 10 -8 11 6 5 10 -3 15 -9 12 -12z m220 -200
c-3 -3 -11 0 -18 7 -9 10 -8 11 6 5 10 -3 15 -9 12 -12z m-15 -88 c0 -2 -9 0
-20 6 -11 6 -20 13 -20 16 0 2 9 0 20 -6 11 -6 20 -13 20 -16z m3897 -16 c-3
-7 -5 -2 -5 12 0 14 2 19 5 13 2 -7 2 -19 0 -25z m-3842 -8 c3 -6 -1 -7 -9 -4
-18 7 -21 14 -7 14 6 0 13 -4 16 -10z m3749 -95 c3 -8 1 -15 -4 -15 -6 0 -10
7 -10 15 0 8 2 15 4 15 2 0 6 -7 10 -15z m-95 -169 c-3 -3 -11 5 -18 17 -13
21 -12 21 5 5 10 -10 16 -20 13 -22z m231 -48 c0 -6 -6 -5 -15 2 -8 7 -15 14
-15 16 0 2 7 1 15 -2 8 -4 15 -11 15 -16z m116 -40 c42 -62 49 -76 27 -53 -21
21 -68 95 -60 95 2 0 17 -19 33 -42z m-281 12 c3 -5 1 -10 -4 -10 -6 0 -11 5
-11 10 0 6 2 10 4 10 3 0 8 -4 11 -10z m25 -30 c0 -5 -4 -10 -10 -10 -5 0 -10
5 -10 10 0 6 5 10 10 10 6 0 10 -4 10 -10z m200 -12 c0 -6 -6 -5 -15 2 -8 7
-15 14 -15 16 0 2 7 1 15 -2 8 -4 15 -11 15 -16z m-880 -75 c8 -6 12 -14 9
-17 -3 -3 -20 8 -39 25 -26 25 -30 33 -19 40 10 6 17 2 24 -14 5 -12 16 -27
25 -34z m551 31 c13 -14 17 -23 9 -19 -13 5 -46 45 -37 45 2 0 14 -11 28 -26z
m-500 -64 c5 0 9 -4 9 -10 0 -12 -10 -13 -27 -2 -7 4 -9 19 -5 37 l7 30 3 -27
c2 -16 8 -28 13 -28z m688 16 c-3 -3 -11 5 -18 17 -13 21 -12 21 5 5 10 -10
16 -20 13 -22z m72 -23 c13 -16 12 -17 -3 -4 -10 7 -18 15 -18 17 0 8 8 3 21
-13z m-337 -52 c9 -12 8 -12 -11 -3 -12 7 -25 17 -29 24 -4 7 -3 8 4 4 7 -4
12 -1 13 6 0 9 2 8 6 -2 3 -8 11 -21 17 -29z m376 -6 c0 -7 7 -18 15 -25 17
-14 21 -45 5 -35 -10 6 -50 79 -50 91 0 3 7 1 15 -6 8 -7 15 -18 15 -25z m130
-97 c0 -20 -17 -4 -28 25 l-12 32 20 -25 c11 -14 20 -28 20 -32z m-555 2 c3
-6 -1 -7 -9 -4 -18 7 -21 14 -7 14 6 0 13 -4 16 -10z m1275 -26 c0 -14 -4 -23
-10 -19 -5 3 -10 15 -10 26 0 10 5 19 10 19 6 0 10 -12 10 -26z m37 -6 c-3 -7
-5 -2 -5 12 0 14 2 19 5 13 2 -7 2 -19 0 -25z m-1247 -25 c0 -7 -39 17 -46 28
-3 6 5 3 20 -6 14 -10 26 -19 26 -22z m115 -13 c10 -11 16 -20 13 -20 -3 0
-13 9 -23 20 -10 11 -16 20 -13 20 3 0 13 -9 23 -20z m303 -25 c-3 -3 -9 2
-12 12 -6 14 -5 15 5 6 7 -7 10 -15 7 -18z m-367 -42 c13 -16 12 -17 -3 -4
-17 13 -22 21 -14 21 2 0 10 -8 17 -17z m398 -39 c12 -19 16 -32 11 -29 -11 7
-43 65 -36 65 2 0 13 -16 25 -36z m-210 -26 c20 -24 21 -28 5 -18 -23 15 -60
62 -42 54 7 -3 24 -19 37 -36z m-43 1 c19 -22 19 -22 -3 -10 -24 12 -39 31
-25 31 5 0 17 -10 28 -21z m223 -22 l25 -32 -32 29 c-33 31 -37 36 -24 35 4 0
18 -14 31 -32z m100 -61 c-3 -3 -11 5 -18 17 -13 21 -12 21 5 5 10 -10 16 -20
13 -22z m-248 -53 c13 -16 12 -17 -3 -4 -17 13 -22 21 -14 21 2 0 10 -8 17
-17z m197 -63 c7 -11 11 -20 9 -20 -2 0 -12 9 -22 20 -10 11 -14 20 -9 20 5 0
15 -9 22 -20z m196 -121 c-5 -19 9 -37 71 -84 86 -67 84 -72 -5 -11 -54 37
-75 60 -96 106 -8 19 -27 48 -42 65 -15 16 -4 9 24 -15 31 -27 50 -51 48 -61z
m-153 74 c13 -16 12 -17 -3 -4 -10 7 -18 15 -18 17 0 8 8 3 21 -13z m-801 -53
c6 9 10 10 10 3 0 -24 -23 -25 -44 -2 l-21 23 23 -19 c20 -16 25 -17 32 -5z
m1002 -128 c42 -31 84 -62 95 -69 12 -8 14 -11 3 -9 -35 4 -270 189 -270 212
0 3 21 -13 48 -36 26 -22 81 -67 124 -98z m-4 82 c15 -14 46 -39 70 -55 23
-17 42 -32 42 -35 0 -5 -19 8 -127 85 -21 15 -30 31 -18 31 3 0 18 -12 33 -26z
m-208 -34 c0 -5 -2 -10 -4 -10 -3 0 -8 5 -11 10 -3 6 -1 10 4 10 6 0 11 -4 11
-10z m30 -30 c0 -5 -2 -10 -4 -10 -3 0 -8 5 -11 10 -3 6 -1 10 4 10 6 0 11 -4
11 -10z m382 -54 c5 -25 5 -25 -25 -9 -23 12 -27 17 -16 24 24 15 36 10 41
-15z m58 -6 c0 -23 -4 -24 -31 -9 -23 12 -16 29 12 29 12 0 19 -7 19 -20z
m276 -27 l26 -17 -22 -8 c-26 -10 -25 -10 -34 20 -9 26 -4 27 30 5z m-3013
-80 c-7 -2 -19 -2 -25 0 -7 3 -2 5 12 5 14 0 19 -2 13 -5z m2632 -31 c-3 -3
-11 0 -18 7 -9 10 -8 11 6 5 10 -3 15 -9 12 -12z m2692 -98 c-3 -3 -12 -4 -19
-1 -8 3 -5 6 6 6 11 1 17 -2 13 -5z m123 -75 c0 11 3 11 15 1 9 -7 14 -14 12
-16 -2 -2 -53 -12 -113 -23 -60 -10 -122 -22 -139 -26 l-30 -6 30 14 c17 8 62
22 102 31 40 10 77 24 84 32 10 12 14 12 25 -3 10 -13 13 -14 14 -4z m-6148
-60 c-23 -5 -55 -17 -70 -27 -15 -11 -61 -38 -103 -60 -42 -22 -98 -54 -125
-71 -27 -17 -74 -44 -104 -60 -30 -16 -84 -47 -120 -69 -36 -22 -96 -57 -135
-78 -38 -20 -81 -44 -95 -54 -14 -9 -45 -28 -70 -42 -25 -14 -143 -80 -263
-147 -120 -68 -221 -120 -224 -117 -4 3 -4 8 -2 10 2 2 150 88 329 191 179
103 337 196 352 206 14 11 29 19 33 19 4 0 38 19 74 43 36 23 84 51 106 62 22
11 49 28 59 38 11 9 23 17 28 17 4 0 59 28 120 63 141 79 181 95 221 88 32 -5
32 -5 -11 -12z m2371 4 c-7 -2 -19 -2 -25 0 -7 3 -2 5 12 5 14 0 19 -2 13 -5z
m3752 -33 c-27 -12 -43 -12 -25 0 8 5 22 9 30 9 10 0 8 -3 -5 -9z m-315 -70
c0 -5 -5 -10 -11 -10 -5 0 -7 5 -4 10 3 6 8 10 11 10 2 0 4 -4 4 -10z m-5830
-35 c-7 -8 -22 -15 -34 -15 -21 1 -21 1 -2 15 27 21 53 20 36 0z m5779 -31
c-6 -16 -13 -24 -16 -17 -5 13 16 58 23 50 3 -2 -1 -17 -7 -33z m-5883 -9 c-6
-18 5 -20 22 -3 6 6 15 8 19 4 10 -10 -17 -26 -44 -26 -34 0 -29 32 6 39 2 1
1 -6 -3 -14z m1181 -41 c-3 -3 -12 -4 -19 -1 -8 3 -5 6 6 6 11 1 17 -2 13 -5z
m3401 -12 c2 -7 -2 -10 -12 -6 -9 3 -16 1 -16 -6 0 -6 4 -9 8 -6 11 7 38 -11
29 -20 -4 -4 -18 -2 -32 4 -22 10 -24 15 -15 33 12 21 31 22 38 1z m-4168 -11
c0 -5 -7 -12 -16 -15 -24 -9 -28 -7 -14 9 14 17 30 20 30 6z m4217 3 c-3 -3
-12 -4 -19 -1 -8 3 -5 6 6 6 11 1 17 -2 13 -5z m1390 -10 c-3 -3 -12 -4 -19
-1 -8 3 -5 6 6 6 11 1 17 -2 13 -5z m-5150 -10 c-3 -3 -12 -4 -19 -1 -8 3 -5
6 6 6 11 1 17 -2 13 -5z m-62 -44 c8 -13 -5 -13 -25 0 -13 8 -13 10 2 10 9 0
20 -4 23 -10z m-1088 -6 c-3 -3 -12 -4 -19 -1 -8 3 -5 6 6 6 11 1 17 -2 13 -5z
m76 -4 c7 0 7 -3 2 -9 -6 -5 -23 -7 -38 -4 -21 4 -25 8 -15 14 7 5 19 7 26 4
8 -3 19 -5 25 -5z m978 -9 c-8 -5 -20 -7 -28 -4 -21 8 -15 13 15 13 20 0 23
-3 13 -9z m479 -1 c0 -5 -7 -10 -16 -10 -8 0 -12 5 -9 10 3 6 10 10 16 10 5 0
9 -4 9 -10z m4664 -5 c-4 -8 -10 -15 -14 -15 -4 0 -11 -11 -14 -25 -4 -14 -11
-25 -17 -25 -13 0 -2 36 19 61 20 23 34 25 26 4z m-4559 -15 c-3 -5 -15 -10
-26 -10 -10 0 -19 5 -19 10 0 6 12 10 26 10 14 0 23 -4 19 -10z m-171 -35
c-24 -18 -31 -19 -31 0 0 9 10 15 26 15 24 0 24 -1 5 -15z m-1607 -1 c-3 -3
-12 -4 -19 -1 -8 3 -5 6 6 6 11 1 17 -2 13 -5z m858 -3 c9 -15 -32 -32 -60
-25 -44 11 -27 32 27 33 15 1 29 -3 33 -8z m705 -1 c0 -5 -2 -10 -4 -10 -3 0
-8 5 -11 10 -3 6 -1 10 4 10 6 0 11 -4 11 -10z m4875 -20 c-10 -11 -20 -18
-23 -16 -5 6 21 35 32 36 5 0 1 -9 -9 -20z m-155 -4 c0 -3 -4 -8 -10 -11 -5
-3 -10 -1 -10 4 0 6 5 11 10 11 6 0 10 -2 10 -4z m-6302 -32 c-2 -1 -22 -5
-45 -7 -33 -4 -41 -2 -36 9 4 11 9 12 18 4 10 -8 17 -7 27 3 9 11 17 12 26 5
7 -6 11 -12 10 -14z m912 8 c0 -4 -16 -9 -35 -10 -19 -2 -35 2 -35 8 0 5 16
10 35 10 19 0 35 -4 35 -8z m1110 -7 c-14 -17 -46 -20 -55 -6 -5 9 15 16 54
20 11 1 11 -2 1 -14z m-751 -8 c29 1 15 -13 -21 -22 -16 -4 -28 -3 -28 3 0 5
-12 7 -27 4 -25 -5 -27 -3 -14 11 9 12 21 15 40 10 14 -4 37 -7 50 -6z m-674
-6 c3 -5 2 -12 -3 -15 -5 -3 -9 1 -9 9 0 17 3 19 12 6z m1880 -1 c8 -13 -5
-13 -25 0 -13 8 -13 10 2 10 9 0 20 -4 23 -10z m-995 -4 c0 -2 -7 -7 -16 -10
-8 -3 -12 -2 -9 4 6 10 25 14 25 6z m-40 -20 c0 -3 -15 -14 -32 -26 l-33 -22
30 26 c31 27 35 29 35 22z m969 -20 c14 -17 -11 -30 -41 -20 -19 6 -19 6 -1
20 23 17 28 17 42 0z m-779 -21 c-35 -20 -57 -20 -40 0 7 8 24 15 39 15 l26
-1 -25 -14z m-630 1 c0 -3 -4 -8 -10 -11 -5 -3 -10 -1 -10 4 0 6 5 11 10 11 6
0 10 -2 10 -4z m-272 -23 c-2 -10 -11 -16 -19 -14 -8 2 -24 3 -36 3 -32 1 -29
6 10 17 46 13 49 13 45 -6z m2965 0 c25 -4 34 -9 26 -14 -7 -4 -21 -3 -30 2
-10 5 -24 6 -32 3 -8 -3 -18 -1 -22 5 -7 13 4 13 58 4z m-870 -30 c-6 -16 -23
-17 -23 -2 0 8 -5 7 -15 -1 -9 -7 -19 -10 -22 -6 -11 10 18 26 43 24 13 -1 20
-7 17 -15z m-3085 -8 c-2 -5 -8 -10 -15 -11 -6 -1 -9 4 -6 12 6 16 27 15 21
-1z m692 5 c0 -5 -8 -10 -17 -10 -15 0 -16 2 -3 10 19 12 20 12 20 0z m1606
-3 c8 3 14 0 14 -6 0 -12 -4 -13 -50 -15 -35 -1 -37 2 -12 20 9 7 21 9 26 4 5
-5 15 -6 22 -3z m-2346 -7 c0 -5 -4 -10 -10 -10 -5 0 -10 5 -10 10 0 6 5 10
10 10 6 0 10 -4 10 -10z m1707 4 c-3 -3 -12 -4 -19 -1 -8 3 -5 6 6 6 11 1 17
-2 13 -5z m2613 -14 c12 -8 9 -10 -13 -10 -16 0 -26 4 -22 10 8 12 16 12 35 0z
m-2885 -17 c-16 -15 -65 -18 -65 -3 0 5 7 6 17 3 10 -4 14 -2 10 4 -4 5 6 10
22 10 24 0 27 -3 16 -14z m255 13 c0 -2 -12 -11 -27 -20 l-28 -17 24 20 c23
21 31 25 31 17z m-810 -26 c0 -5 -5 -10 -11 -10 -5 0 -7 5 -4 10 3 6 8 10 11
10 2 0 4 -4 4 -10z m1165 0 c3 -6 -1 -7 -9 -4 -18 7 -21 14 -7 14 6 0 13 -4
16 -10z m1505 0 c0 -5 -5 -10 -11 -10 -5 0 -7 5 -4 10 3 6 8 10 11 10 2 0 4
-4 4 -10z m-2415 -10 c-3 -5 -12 -10 -18 -10 -7 0 -6 4 3 10 19 12 23 12 15 0z
m-539 -15 c-11 -8 -25 -15 -30 -15 -6 0 -2 7 8 15 11 8 25 15 30 15 6 0 2 -7
-8 -15z m2154 6 c0 -5 -7 -12 -16 -15 -24 -9 -28 -7 -14 9 14 17 30 20 30 6z
m1870 -1 c0 -5 -9 -10 -21 -10 -11 0 -17 5 -14 10 3 6 13 10 21 10 8 0 14 -4
14 -10z m-2507 -7 c-7 -2 -19 -2 -25 0 -7 3 -2 5 12 5 14 0 19 -2 13 -5z
m2562 -3 c-3 -5 -12 -7 -20 -3 -21 7 -19 13 6 13 11 0 18 -4 14 -10z m-3076
-3 c-2 -1 -13 -9 -24 -17 -19 -14 -19 -14 -6 3 7 9 18 17 24 17 6 0 8 -1 6 -3z
m207 -12 c-19 -15 -19 -15 1 -15 12 0 23 6 26 13 2 6 8 9 12 5 14 -13 -7 -28
-39 -28 -43 0 -52 11 -24 27 31 17 47 16 24 -2z m259 -15 c-3 -5 -12 -10 -18
-10 -7 0 -6 4 3 10 19 12 23 12 15 0z m-785 -10 c0 -5 -4 -10 -10 -10 -5 0
-10 5 -10 10 0 6 5 10 10 10 6 0 10 -4 10 -10z m-262 -10 c9 -1 2 -7 -17 -15
-42 -19 -40 -19 -34 6 4 12 11 18 20 15 8 -3 22 -6 31 -6z m2892 0 c0 -5 -5
-10 -11 -10 -5 0 -7 5 -4 10 3 6 8 10 11 10 2 0 4 -4 4 -10z m60 6 c0 -2 -7
-7 -16 -10 -8 -3 -12 -2 -9 4 6 10 25 14 25 6z m1083 -6 c7 0 5 -5 -5 -10 -19
-12 -51 -3 -42 12 3 5 13 7 21 4 8 -3 20 -6 26 -6z m-5303 -10 c0 -5 -2 -10
-4 -10 -3 0 -8 5 -11 10 -3 6 -1 10 4 10 6 0 11 -4 11 -10z m3425 -1 c-4 -6
-13 -8 -21 -5 -8 3 -14 1 -14 -4 0 -6 -12 -9 -27 -9 -21 1 -23 2 -8 6 11 3 24
9 30 14 13 13 48 11 40 -2z m-955 -24 c-47 -18 -58 -18 -34 0 10 8 30 14 44
14 22 0 21 -2 -10 -14z m-1515 -5 c-3 -5 -12 -10 -18 -10 -7 0 -6 4 3 10 19
12 23 12 15 0z m1241 -21 c-14 -11 -32 -18 -39 -16 -7 4 -6 6 4 6 9 1 22 8 29
16 7 8 17 15 23 15 5 0 -2 -9 -17 -21z m-266 2 c0 -5 -7 -11 -14 -14 -10 -4
-13 -1 -9 9 6 15 23 19 23 5z m2683 -2 c10 7 18 8 21 2 7 -11 -29 -25 -44 -16
-5 3 -10 12 -10 18 0 8 4 7 9 -2 8 -12 12 -12 24 -2z m1047 1 c0 -5 -9 -10
-19 -10 -11 0 -23 5 -26 10 -4 6 5 10 19 10 14 0 26 -4 26 -10z m-3990 -18
c-8 -3 -17 -8 -20 -13 -3 -4 -18 -5 -33 -2 l-28 6 23 11 c13 7 34 10 48 7 16
-3 20 -6 10 -9z m2118 -1 c-7 -11 -16 -17 -20 -14 -10 5 10 33 23 33 5 0 4 -9
-3 -19z m52 -11 c-24 -15 -37 -11 -16 5 11 8 22 12 25 9 3 -3 -1 -9 -9 -14z
m-3400 0 c0 -6 -11 -8 -27 -4 -40 10 -41 14 -5 14 18 0 32 -5 32 -10z m70 -11
c0 -5 -12 -7 -26 -5 -38 7 -39 13 -4 14 16 0 30 -4 30 -9z m850 -4 c-7 -8 -17
-15 -22 -15 -6 0 -5 7 2 15 7 8 17 15 22 15 6 0 5 -7 -2 -15z m1494 -1 c-18
-15 -18 -15 6 -10 14 3 30 6 35 6 6 0 3 5 -5 10 -13 8 -12 10 3 10 27 0 15
-23 -16 -34 -18 -7 -31 -6 -38 1 -14 14 -3 33 19 33 13 0 13 -2 -4 -16z m2181
0 c-9 -9 -19 -13 -23 -10 -3 4 0 11 8 16 24 15 33 11 15 -6z m60 -5 c-10 -15
-25 -10 -19 6 4 8 10 12 15 9 5 -3 7 -10 4 -15z m-4511 -1 c-6 -10 -64 -7 -64
4 0 4 15 7 34 5 19 -1 32 -5 30 -9z m481 2 c13 -6 15 -9 5 -9 -8 0 -22 4 -30
9 -18 12 -2 12 25 0z m135 1 c0 -5 -8 -15 -17 -22 -16 -12 -17 -12 -6 2 7 9
10 19 6 22 -3 4 -1 7 5 7 7 0 12 -4 12 -9z m4773 -4 c-2 -4 -5 -7 -8 -7 -3 0
-12 0 -21 0 -8 0 -13 4 -10 9 7 10 42 8 39 -2z m-3633 -12 c0 -2 -10 -9 -22
-15 -22 -11 -22 -10 -4 4 21 17 26 19 26 11z m-266 -13 c3 -5 -8 -6 -25 -4
-31 5 -41 -13 -11 -21 13 -4 12 -5 -5 -6 -24 -1 -38 13 -28 29 7 12 62 13 69
2z m516 -2 c0 -5 -5 -10 -11 -10 -5 0 -7 5 -4 10 3 6 8 10 11 10 2 0 4 -4 4
-10z m3933 3 c-7 -2 -19 -2 -25 0 -7 3 -2 5 12 5 14 0 19 -2 13 -5z m-5713
-13 c21 -13 10 -19 -23 -13 -21 4 -25 8 -15 14 16 11 20 11 38 -1z m967 -16
c-15 -14 -33 -24 -39 -22 -6 2 4 14 23 25 46 29 49 28 16 -3z m2458 16 c-3 -5
-11 -10 -16 -10 -6 0 -7 5 -4 10 3 6 11 10 16 10 6 0 7 -4 4 -10z m2348 3 c-7
-2 -19 -2 -25 0 -7 3 -2 5 12 5 14 0 19 -2 13 -5z m-5968 -23 c-30 -20 -30
-20 -5 -19 14 1 90 -10 170 -25 80 -14 157 -28 171 -31 14 -2 37 2 52 10 22
11 25 11 20 -1 -7 -19 -7 -19 242 -63 203 -37 222 -38 244 -24 22 14 24 14 18
0 -8 -20 25 -31 168 -53 61 -9 115 -21 120 -27 12 -11 -26 -6 -210 28 -71 13
-159 28 -195 34 -36 5 -132 21 -215 35 -227 37 -229 38 -282 11 -26 -13 -51
-21 -57 -18 -6 3 -8 3 -4 -2 5 -5 0 -14 -10 -20 -43 -31 -303 -185 -314 -187
-7 -2 -15 -6 -18 -9 -3 -4 -43 -30 -90 -59 -50 -31 -77 -43 -65 -30 11 12 43
36 70 52 28 17 41 27 30 23 -11 -4 -29 -9 -40 -12 -17 -4 -18 -3 -5 7 13 10
12 11 -4 6 -10 -4 -27 -4 -37 -1 -17 6 -19 18 -19 100 0 85 2 96 24 118 12 13
26 30 29 38 5 12 7 12 16 -1 9 -12 11 -11 12 10 1 14 1 29 0 34 -1 5 4 6 12 3
8 -3 22 4 31 15 10 11 24 17 32 14 9 -4 12 -2 8 5 -4 6 -19 8 -36 5 -19 -4
-27 -2 -22 5 6 10 22 9 79 -4 11 -2 14 -2 8 0 -7 3 -13 8 -13 12 0 5 -19 11
-41 15 -23 4 -40 9 -37 11 2 3 32 0 66 -6 53 -9 66 -9 85 4 12 9 27 16 32 16
6 1 -3 -8 -20 -19z m298 3 c15 -3 27 -8 27 -12 0 -4 -24 -2 -54 3 -30 6 -53
13 -50 17 2 4 14 5 27 2 12 -3 34 -7 50 -10z m4553 -9 c-9 -9 -20 -14 -23 -10
-4 3 2 13 13 20 25 18 31 12 10 -10z m-5039 10 c-3 -3 -12 -4 -19 -1 -8 3 -5
6 6 6 11 1 17 -2 13 -5z m2853 -3 c0 -5 -9 -11 -20 -14 -22 -6 -28 8 -7 16 19
8 27 8 27 -2z m36 -17 c-11 -7 -22 -11 -25 -8 -3 3 3 12 13 20 11 7 22 11 25
8 3 -3 -3 -12 -13 -20z m2209 7 c-3 -6 -11 -11 -17 -11 -6 0 -6 6 2 15 14 17
26 13 15 -4z m-3962 -10 c31 -12 -3 -32 -42 -25 -29 6 -30 8 -14 20 20 15 30
16 56 5z m4880 2 c-7 -2 -19 -2 -25 0 -7 3 -2 5 12 5 14 0 19 -2 13 -5z
m-4743 -13 c0 -5 -5 -10 -11 -10 -5 0 -7 5 -4 10 3 6 8 10 11 10 2 0 4 -4 4
-10z m773 -15 c28 5 26 3 -8 -8 -46 -16 -50 -15 -40 10 5 12 9 14 12 6 3 -8
17 -10 36 -8z m2161 0 c-25 -19 -40 -19 -24 0 7 8 20 15 28 15 13 0 12 -3 -4
-15z m51 -5 c-3 -5 -11 -10 -16 -10 -6 0 -7 5 -4 10 3 6 11 10 16 10 6 0 7 -4
4 -10z m-3404 -10 c5 0 9 -4 9 -9 0 -4 -11 -6 -25 -3 -14 2 -25 9 -25 14 0 6
7 7 16 4 9 -3 20 -6 25 -6z m2449 -20 c-24 -15 -37 -11 -16 5 11 8 22 12 25 9
3 -3 -1 -9 -9 -14z m2175 4 c-9 -9 -18 -14 -21 -11 -9 9 6 27 22 27 13 0 13
-2 -1 -16z m53 4 c-2 -6 -10 -14 -16 -16 -7 -2 -10 2 -6 12 7 18 28 22 22 4z
m-4588 -8 c24 -8 24 -8 -5 -8 -16 0 -39 3 -50 8 -18 8 -18 9 5 8 14 0 36 -4
50 -8z m1525 -30 c3 -5 4 -10 1 -10 -2 0 -12 -3 -22 -7 -12 -4 -15 -3 -10 5 5
9 0 9 -19 2 -36 -14 -42 -12 -19 5 22 17 60 20 69 5z m2175 1 c0 -5 -7 -12
-16 -15 -24 -9 -28 -7 -14 9 14 17 30 20 30 6z m45 -1 c3 -5 1 -10 -4 -10 -6
0 -11 5 -11 10 0 6 2 10 4 10 3 0 8 -4 11 -10z m-3922 -43 c67 -13 115 -26
110 -31 -5 -5 -2 -6 5 -1 8 4 87 -5 178 -21 142 -24 161 -29 146 -41 -15 -11
-13 -12 10 -2 20 9 42 9 85 1 32 -6 105 -19 163 -28 58 -9 110 -21 117 -26 7
-6 16 -7 22 -4 5 4 29 0 53 -8 24 -8 52 -16 63 -19 14 -3 11 -5 -10 -7 -25 -1
-27 -3 -11 -9 19 -7 19 -8 -2 -13 -14 -4 -20 -2 -16 4 5 7 -2 9 -19 4 -15 -3
-27 -2 -29 5 -3 8 -20 7 -60 -5 -31 -9 -90 -16 -132 -16 -44 0 -76 -4 -76 -10
0 -5 -18 -10 -39 -10 -25 0 -41 -5 -45 -15 -3 -8 -16 -15 -30 -15 -31 0 -45
-20 -18 -27 16 -4 20 -12 18 -41 -1 -30 -6 -38 -24 -40 -19 -3 -21 -6 -11 -18
8 -10 8 -14 0 -14 -6 0 -11 -4 -11 -10 0 -6 9 -5 24 1 14 7 22 17 19 25 -3 9
2 14 16 14 18 0 21 6 21 40 0 22 5 40 10 40 6 0 10 -18 10 -40 0 -22 -4 -40
-10 -40 -5 0 -10 -7 -10 -15 0 -8 -6 -15 -12 -15 -10 0 -10 -2 0 -8 6 -5 11
-20 10 -35 -2 -28 -12 -35 -24 -16 -5 8 -9 8 -14 -1 -4 -6 -21 -12 -38 -12
-28 -1 -30 -2 -14 -14 15 -12 13 -13 -21 -14 -23 0 -36 -4 -32 -10 11 -17 -20
-38 -61 -43 l-39 -4 45 -3 45 -3 -45 -6 c-36 -5 -44 -10 -42 -23 2 -12 -4 -18
-15 -18 -10 0 -24 -9 -31 -20 -9 -15 -23 -20 -60 -21 -35 0 -42 -3 -27 -9 19
-8 19 -9 -2 -9 -12 -1 -24 -7 -27 -13 -3 -9 -13 -4 -28 15 -20 23 -31 27 -76
27 -40 0 -52 4 -52 15 0 12 -16 15 -80 15 -62 0 -80 3 -80 14 0 9 -15 16 -42
19 -50 6 -118 29 -118 39 0 5 -27 8 -59 8 -43 0 -60 4 -65 15 -3 8 -21 23 -41
32 -19 9 -35 20 -35 25 0 4 -8 8 -18 8 -18 0 -102 69 -102 84 0 4 -13 19 -30
33 -16 13 -30 31 -30 39 0 8 -6 11 -15 8 -8 -4 -13 -9 -11 -13 3 -4 -4 -7 -15
-7 -25 0 -25 1 14 23 17 11 93 57 167 103 74 46 149 91 167 101 18 10 49 29
70 43 109 71 125 76 188 70 33 -3 113 -15 178 -27z m2936 9 c9 -11 5 -13 -19
-12 -31 1 -39 11 -17 19 20 9 24 8 36 -7z m1421 -42 c0 -8 -8 -14 -17 -13 -10
0 -13 3 -6 5 7 3 9 12 6 21 -4 11 -2 14 5 9 7 -4 12 -14 12 -22z m-2260 -1 c0
-13 3 -14 12 -5 7 7 17 12 23 12 11 -1 -25 -30 -37 -30 -4 0 -8 7 -8 15 0 12
-4 13 -19 5 -29 -15 -39 -12 -17 5 26 20 46 19 46 -2z m2220 10 c-8 -3 -18
-11 -22 -17 -9 -14 -22 -1 -13 13 3 6 16 11 28 10 15 0 17 -2 7 -6z m280 -7
c0 -2 -21 -20 -47 -41 l-48 -37 45 41 c45 41 50 45 50 37z m775 -16 c-3 -5
-12 -10 -20 -10 -8 0 -17 5 -20 10 -4 6 5 10 20 10 15 0 24 -4 20 -10z m-2020
-16 c-9 -9 -19 -13 -23 -10 -3 4 0 11 8 16 24 15 33 11 15 -6z m-2410 -69 c80
-14 121 -26 84 -24 -45 1 -391 67 -374 70 11 3 61 -3 110 -13 50 -9 130 -24
180 -33z m1565 33 c0 -7 -11 -14 -25 -14 -21 -2 -24 1 -14 12 14 17 39 18 39
2z m2238 -7 c-7 -11 -16 -17 -20 -14 -10 5 10 33 23 33 5 0 4 -9 -3 -19z
m-2191 -8 c-9 -9 -19 -14 -23 -11 -10 10 6 28 24 28 15 0 15 -1 -1 -17z m2243
2 c-7 -8 -17 -15 -22 -15 -6 0 -5 7 2 15 7 8 17 15 22 15 6 0 5 -7 -2 -15z
m-985 -18 c6 -5 3 -7 -7 -3 -10 3 -20 1 -23 -4 -4 -6 -11 -10 -17 -10 -6 0 -3
9 7 20 10 11 21 17 24 13 3 -4 11 -12 16 -16z m673 3 c-7 -11 -22 -20 -33 -19
-19 0 -19 1 1 9 12 5 25 13 29 19 3 6 8 11 11 11 2 0 -1 -9 -8 -20z m-1479 -9
c10 -7 7 -9 -12 -8 -14 1 -23 5 -20 10 6 9 15 9 32 -2z m-1901 -28 c-10 -2
-26 -2 -35 0 -10 3 -2 5 17 5 19 0 27 -2 18 -5z m-103 -23 c-3 -5 -12 -10 -18
-10 -7 0 -6 4 3 10 19 12 23 12 15 0z m68 -7 c-7 -2 -21 -2 -30 0 -10 3 -4 5
12 5 17 0 24 -2 18 -5z m3197 0 c0 -5 -5 -15 -10 -23 -8 -13 -10 -13 -10 2 0
15 -4 16 -26 8 -37 -15 -44 -11 -9 5 34 16 55 19 55 8z m269 5 c-2 -2 -20 -16
-39 -33 l-35 -30 29 33 c17 17 34 32 40 32 5 0 7 -1 5 -2z m643 -20 c-9 -9
-15 -9 -24 0 -9 9 -7 12 12 12 19 0 21 -3 12 -12z m-754 -73 c-21 -19 -46 -35
-55 -34 -14 0 -15 2 -3 6 8 3 31 19 50 35 48 39 53 35 8 -7z m-1702 -1 c-9 -9
-26 -11 -50 -7 -35 6 -36 6 -14 17 13 7 35 10 50 8 23 -4 25 -6 14 -18z m1944
11 c-10 -13 -9 -15 12 -15 13 0 29 5 36 12 6 6 15 9 18 5 12 -12 -44 -30 -71
-23 -22 6 -25 9 -15 21 7 8 17 15 22 15 6 0 5 -7 -2 -15z m-570 -48 c0 -2 -10
-12 -22 -23 l-23 -19 19 23 c18 21 26 27 26 19z m-4910 -11 c0 -2 -7 -7 -16
-10 -8 -3 -12 -2 -9 4 6 10 25 14 25 6z m-41 -20 c-2 -2 -15 -9 -29 -15 -24
-11 -24 -11 -6 3 16 13 49 24 35 12z m3575 -18 c-3 -4 -11 -5 -19 -1 -21 7
-19 12 4 10 11 0 18 -5 15 -9z m95 -15 c3 -2 -9 -3 -27 -1 -18 1 -32 6 -32 10
0 8 49 0 59 -9z m2233 5 c-9 -9 -15 -9 -24 0 -9 9 -7 12 12 12 19 0 21 -3 12
-12z m-2132 -12 c0 -3 -4 -8 -10 -11 -5 -3 -10 -1 -10 4 0 6 5 11 10 11 6 0
10 -2 10 -4z m266 -48 c4 4 4 2 1 -5 -7 -12 -44 -7 -53 8 -3 5 6 5 19 0 14 -6
28 -7 33 -3z m154 -28 c0 -5 -5 -10 -11 -10 -5 0 -7 5 -4 10 3 6 8 10 11 10 2
0 4 -4 4 -10z m420 -30 c0 -13 -11 -13 -30 0 -12 8 -11 10 8 10 12 0 22 -4 22
-10z m219 -33 c-59 -51 -93 -77 -102 -77 -6 0 19 22 54 49 66 51 94 67 48 28z
m921 8 c11 -13 8 -15 -16 -15 -22 0 -26 3 -14 10 12 8 11 10 -7 10 -12 0 -23
-5 -25 -12 -2 -6 -10 -8 -16 -4 -19 12 -6 22 31 24 21 2 39 -4 47 -13z m-655
-5 c3 -5 -3 -10 -15 -10 -12 0 -18 5 -15 10 3 6 10 10 15 10 5 0 12 -4 15 -10z
m235 -42 c-101 -89 -131 -121 -122 -130 13 -13 336 -68 397 -67 55 0 66 5 146
67 57 43 82 54 59 27 -7 -8 -16 -15 -20 -15 -5 0 -27 -18 -51 -41 -23 -22 -36
-40 -28 -38 8 1 21 0 29 -4 8 -3 29 -8 45 -11 17 -2 59 -12 95 -20 36 -9 100
-24 143 -34 43 -9 75 -21 71 -25 -9 -9 55 -77 71 -77 6 0 22 -11 35 -25 13
-14 29 -25 37 -25 7 0 13 -7 13 -15 0 -8 4 -15 9 -15 5 0 11 -20 13 -45 2 -25
-1 -45 -5 -45 -5 0 -1 -7 8 -16 9 -9 19 -13 23 -9 4 4 1 10 -6 12 -13 5 -7 23
9 23 6 0 7 -4 4 -10 -9 -14 5 -13 25 3 9 6 -1 -5 -23 -25 -22 -21 -44 -35 -50
-31 -5 3 -7 1 -4 -4 6 -9 -109 -123 -293 -288 -30 -28 -60 -55 -67 -61 -241
-223 -413 -373 -441 -388 -59 -30 -131 -46 -217 -46 -89 0 -306 39 -1065 190
-135 27 -274 54 -310 60 -123 21 -128 22 -105 31 29 11 55 10 30 -2 -15 -7
-11 -8 19 -5 46 6 56 13 36 27 -11 8 -12 12 -2 16 6 2 12 20 12 39 0 28 4 34
21 34 11 0 18 4 15 9 -3 5 6 12 20 15 16 4 25 13 23 24 -3 36 2 52 16 52 8 0
14 3 14 8 -4 21 3 32 19 32 20 0 152 130 152 149 0 6 6 11 13 11 17 0 44 32
61 75 10 24 25 39 46 46 20 7 32 20 36 37 4 15 13 40 21 56 12 23 17 26 24 15
8 -11 12 -10 21 6 7 11 13 26 14 34 2 8 8 17 15 21 6 4 8 13 5 19 -4 6 -4 11
1 10 37 -6 51 3 63 44 17 53 31 72 40 57 5 -7 20 1 44 23 21 20 32 37 25 39
-16 5 10 46 33 54 10 3 18 13 18 22 0 27 28 60 47 58 10 -2 12 -1 6 1 -7 3
-13 9 -13 14 0 9 93 5 109 -6 5 -3 93 -18 196 -35 128 -20 193 -26 208 -20 12
5 60 41 107 79 87 72 123 95 60 39z m-320 -38 c0 -5 -9 -10 -20 -10 -11 0 -20
5 -20 10 0 6 9 10 20 10 11 0 20 -4 20 -10z m-4490 -25 c20 -24 6 -28 -15 -5
-10 11 -13 20 -8 20 6 0 16 -7 23 -15z m4990 -15 c0 -5 -6 -10 -14 -10 -8 0
-18 5 -21 10 -3 6 3 10 14 10 12 0 21 -4 21 -10z m245 -100 c-3 -5 -11 -10
-16 -10 -6 0 -7 5 -4 10 3 6 11 10 16 10 6 0 7 -4 4 -10z m-4982 -327 c-7 -2
-19 -2 -25 0 -7 3 -2 5 12 5 14 0 19 -2 13 -5z m194 -39 c-3 -3 -12 -4 -19 -1
-8 3 -5 6 6 6 11 1 17 -2 13 -5z m60 -10 c-3 -3 -12 -4 -19 -1 -8 3 -5 6 6 6
11 1 17 -2 13 -5z m1900 -390 c-3 -3 -12 -4 -19 -1 -8 3 -5 6 6 6 11 1 17 -2
13 -5z m680 -80 c-3 -3 -12 -4 -19 -1 -8 3 -5 6 6 6 11 1 17 -2 13 -5z m-3117
-25 c0 -8 20 -10 68 -5 74 7 180 -5 190 -21 4 -6 36 -11 72 -11 38 0 66 -5 68
-11 2 -6 26 -11 53 -11 27 0 49 -4 49 -8 0 -13 54 -35 58 -24 3 11 92 -2 122
-18 11 -6 31 -8 43 -5 15 4 18 3 9 -3 -9 -6 27 -12 106 -16 90 -6 122 -11 126
-22 3 -9 20 -14 43 -14 21 -1 56 -9 78 -20 22 -11 45 -19 52 -20 6 0 13 -6 15
-12 3 -9 32 -12 106 -10 65 2 102 0 102 -7 0 -5 -17 -12 -37 -14 -21 -2 -1 -2
44 1 65 3 88 1 108 -12 30 -20 43 -20 47 -1 3 12 8 12 37 -3 25 -11 36 -13 38
-5 3 9 12 9 31 2 15 -6 50 -8 80 -4 41 5 52 4 52 -8 0 -10 29 -17 115 -27 64
-7 118 -10 121 -7 3 3 33 -2 67 -10 34 -7 89 -16 122 -18 125 -7 215 -18 215
-25 0 -5 24 -11 53 -15 28 -4 68 -10 87 -15 19 -5 49 -10 65 -12 17 -2 32 -6
35 -10 5 -6 87 -18 150 -23 14 -1 39 -5 55 -10 17 -5 48 -8 70 -8 22 1 51 -6
65 -15 14 -9 45 -17 70 -18 64 -3 165 -20 187 -33 11 -5 55 -15 99 -21 122
-17 126 -18 137 -29 6 -6 28 -11 48 -11 21 0 41 -5 44 -10 4 -6 11 -7 17 -4 6
4 14 1 18 -6 8 -13 28 -18 83 -19 16 -1 26 -5 22 -11 -4 -6 6 -8 24 -6 17 2
31 0 31 -4 0 -4 17 -11 38 -15 20 -3 48 -14 62 -23 14 -9 43 -17 65 -18 22 -1
48 -2 58 -3 11 -1 17 -9 17 -26 0 -28 25 -34 61 -15 16 9 19 7 19 -10 0 -13 7
-20 18 -20 10 0 22 -3 26 -8 4 -4 13 -7 18 -7 6 0 13 -6 16 -13 2 -8 -2 -12
-13 -10 -10 2 -20 -3 -23 -10 -3 -9 3 -13 19 -12 13 1 41 2 62 1 36 -1 37 -2
37 -41 l0 -40 -40 0 c-27 0 -40 4 -40 13 0 11 -49 15 -237 20 -130 4 -239 11
-242 15 -3 5 -59 9 -123 9 -92 0 -118 -3 -118 -14 0 -9 -13 -13 -40 -13 -29 0
-40 4 -40 15 0 13 -20 15 -120 15 -113 0 -120 1 -120 20 0 13 -7 20 -19 20
-10 0 -46 3 -80 6 -52 6 -61 5 -61 -10 0 -9 -3 -16 -7 -16 -15 0 -53 45 -53
62 0 16 -10 18 -90 18 -53 0 -90 -4 -90 -10 0 -5 -7 -10 -16 -10 -8 0 -12 5
-9 10 4 7 -72 10 -219 10 -174 0 -226 -3 -226 -12 0 -9 -4 -8 -10 2 -9 13 -11
13 -20 0 -6 -10 -10 -11 -10 -2 0 6 -11 12 -25 12 -18 0 -25 5 -25 20 0 11 -4
20 -10 20 -5 0 -10 -6 -10 -12 0 -9 -4 -8 -11 2 -8 11 -12 12 -16 3 -6 -18
-33 -16 -33 1 0 8 -11 17 -25 20 -14 4 -25 11 -25 16 0 6 -7 10 -15 10 -8 0
-15 6 -15 13 0 26 -53 39 -147 38 l-93 -2 0 26 c0 25 -1 25 -80 25 l-80 0 0
40 0 40 -80 0 c-47 0 -80 4 -80 10 0 6 -18 10 -40 10 -33 0 -40 3 -40 20 0 17
-7 20 -40 20 -29 0 -40 -4 -40 -15 0 -11 -11 -15 -40 -15 -36 0 -40 3 -40 25
0 25 -1 25 -79 25 -54 0 -81 4 -84 13 -4 9 -8 8 -16 -3 -10 -13 -12 -13 -21 0
-6 10 -10 11 -10 3 0 -7 -7 -13 -15 -13 -8 0 -15 7 -15 15 0 12 -13 15 -55 15
-37 0 -55 -4 -55 -12 0 -9 -4 -8 -10 2 -9 13 -11 13 -21 0 -8 -11 -12 -12 -16
-2 -3 7 -23 12 -48 12 -26 0 -47 6 -55 15 -7 8 -29 15 -50 15 -34 0 -40 4 -55
37 -25 52 -38 63 -79 63 -20 0 -36 5 -36 10 0 6 -18 10 -40 10 -33 0 -40 -3
-40 -20 0 -27 -18 -25 -42 5 -22 29 -38 32 -38 9 0 -14 -9 -16 -52 -12 -29 3
-54 11 -56 17 -2 6 -15 11 -28 11 -19 0 -24 5 -24 25 0 24 -2 25 -75 25 -52 0
-75 -4 -75 -12 0 -7 -7 -2 -16 11 -13 18 -18 20 -25 10 -6 -10 -9 -7 -9 11 0
18 -3 21 -9 11 -7 -11 -12 -10 -22 8 -8 11 -22 21 -31 21 -11 0 -18 8 -18 19
0 14 -5 18 -20 14 -16 -4 -20 0 -20 21 0 25 -3 26 -50 26 -27 0 -50 5 -50 10
0 6 23 10 50 10 38 0 50 4 50 15 0 12 16 15 80 15 53 0 80 -4 80 -11z m3177
-35 c-3 -3 -12 -4 -19 -1 -8 3 -5 6 6 6 11 1 17 -2 13 -5z m56 -11 c-7 -2 -21
-2 -30 0 -10 3 -4 5 12 5 17 0 24 -2 18 -5z m-2806 -255 c-3 -8 -6 -5 -6 6 -1
11 2 17 5 13 3 -3 4 -12 1 -19z m133 7 c0 -11 -12 -15 -50 -15 -38 0 -50 4
-50 15 0 11 12 15 50 15 38 0 50 -4 50 -15z"/>
<path d="M5570 7950 c20 -13 43 -13 35 0 -3 6 -16 10 -28 10 -18 0 -19 -2 -7
-10z"/>
<path d="M6505 7800 c7 -11 88 -50 104 -50 6 0 11 -4 11 -10 0 -5 7 -6 17 -3
11 4 14 3 9 -5 -4 -7 -1 -12 6 -13 43 -3 60 -7 71 -19 10 -10 7 -10 -13 -1
-23 11 -23 11 -7 -2 10 -8 27 -12 39 -9 14 3 19 1 14 -6 -7 -11 24 -25 59 -26
11 -1 19 -7 18 -13 -2 -8 8 -13 24 -13 24 0 103 -44 103 -58 0 -2 -10 3 -22
12 -13 9 -32 21 -43 28 -18 10 -19 10 -6 -6 17 -21 66 -47 74 -40 10 10 137
-60 133 -73 -5 -12 7 -18 28 -14 14 3 76 -32 76 -42 0 -5 6 -7 12 -5 7 3 18 0
25 -6 29 -25 43 -36 45 -35 10 4 76 -36 71 -44 -3 -6 -1 -7 5 -3 7 4 22 -3 34
-15 34 -32 68 -53 75 -46 3 4 14 -3 24 -14 9 -11 21 -20 26 -21 14 0 63 -32
63 -41 0 -4 5 -5 10 -2 6 3 10 1 10 -5 0 -6 5 -8 10 -5 6 3 10 2 10 -2 0 -9 9
-14 85 -50 25 -12 58 -31 72 -43 14 -11 35 -20 46 -20 11 0 17 -3 14 -7 -8 -7
89 -63 109 -63 7 0 17 -6 21 -14 10 -17 173 -94 173 -81 0 14 -602 380 -1153
701 -291 169 -284 166 -367 175 -41 5 -86 12 -98 14 -15 4 -21 2 -17 -5z"/>
<path d="M6798 7763 c6 -2 10 -9 7 -14 -4 -5 2 -6 11 -2 12 5 15 3 9 -6 -6
-10 -3 -11 15 -1 18 10 21 9 15 -1 -6 -9 -3 -11 8 -6 12 4 14 2 10 -10 -4 -9
-2 -14 3 -10 11 6 87 -27 79 -34 -3 -3 5 -5 18 -5 13 1 21 -4 19 -12 -2 -10 4
-12 20 -7 13 4 20 4 16 0 -4 -4 18 -20 49 -35 34 -17 50 -30 42 -33 -8 -3 -5
-6 9 -6 12 -1 22 -5 22 -10 0 -7 35 -22 48 -20 2 0 14 -11 27 -25 12 -13 25
-22 28 -20 3 3 28 -11 56 -31 28 -20 51 -34 51 -31 0 3 9 -3 21 -15 11 -11 36
-27 55 -35 19 -8 33 -18 31 -23 -1 -5 3 -10 8 -11 6 -1 24 -12 42 -26 17 -13
43 -28 57 -34 14 -5 26 -13 26 -18 0 -8 39 -30 110 -62 14 -6 17 -8 7 -5 -10
3 -15 1 -12 -5 3 -6 12 -10 19 -10 8 0 19 -7 26 -15 6 -8 15 -14 18 -13 21 2
32 -3 26 -14 -4 -6 -3 -8 4 -4 6 3 17 -1 26 -10 9 -8 20 -12 26 -9 6 4 9 1 8
-7 -2 -7 3 -12 10 -11 6 2 12 -2 12 -9 0 -6 3 -9 6 -5 3 3 11 1 18 -4 14 -13
79 -53 89 -55 4 -1 12 -2 19 -3 6 0 8 -4 5 -7 -4 -4 21 -20 55 -36 33 -15 63
-27 65 -24 3 2 -26 21 -64 42 -37 21 -210 133 -384 249 -174 115 -364 239
-422 275 -154 94 -225 138 -283 177 -36 24 -69 37 -115 43 -69 10 -91 11 -71
3z"/>
<path d="M7058 7728 c17 -6 32 -14 32 -18 0 -4 18 -13 40 -20 22 -7 40 -16 40
-20 0 -3 16 -12 35 -20 19 -8 35 -17 35 -21 0 -4 9 -11 20 -14 11 -4 32 -19
45 -33 14 -15 25 -21 25 -14 0 6 13 -2 29 -18 15 -17 34 -30 40 -30 7 0 9 -4
6 -10 -3 -6 1 -7 9 -4 9 3 16 1 16 -4 0 -6 28 -25 63 -42 34 -17 53 -29 42
-25 -15 4 -12 -1 10 -19 17 -14 35 -24 41 -22 6 2 16 -5 23 -15 6 -11 16 -17
21 -14 6 3 10 1 10 -5 0 -7 7 -9 17 -6 10 4 14 4 10 0 -8 -8 69 -55 95 -57 9
-1 14 -5 12 -9 -3 -4 2 -8 11 -8 9 0 14 -4 11 -8 -3 -5 6 -15 19 -22 14 -7 25
-17 25 -21 0 -5 7 -5 17 -2 11 4 14 3 9 -5 -4 -8 -2 -10 7 -6 9 3 21 -4 29
-15 8 -12 18 -18 21 -14 4 3 7 1 7 -5 0 -7 9 -12 19 -12 10 0 21 -7 25 -15 3
-8 13 -15 21 -15 9 0 13 -4 10 -10 -3 -6 1 -7 9 -4 11 4 16 0 16 -11 0 -11 5
-15 15 -11 8 3 14 0 12 -7 -1 -7 4 -11 11 -10 6 2 12 -1 12 -7 0 -5 7 -6 17
-3 10 4 14 2 9 -5 -3 -6 -2 -13 4 -17 5 -3 10 -1 10 4 0 21 20 11 35 -18 8
-16 24 -33 36 -36 14 -5 17 -10 10 -14 -21 -13 62 -48 216 -92 218 -61 190
-63 -42 -3 -16 4 -17 3 -5 -5 27 -19 2 -12 -84 24 -92 38 -137 47 -102 20 11
-8 16 -15 10 -15 -18 0 98 -50 188 -80 100 -33 375 -102 473 -119 33 -6 102
-17 153 -26 51 -9 96 -14 100 -11 12 7 82 -15 82 -26 0 -5 -4 -7 -8 -4 -4 2
-35 7 -67 11 -247 25 -669 116 -859 185 -66 24 -83 23 -64 -3 29 -40 506 -174
788 -222 192 -33 218 -35 355 -40 147 -4 143 -4 127 -14 -7 -4 -24 -6 -37 -3
-13 2 -31 0 -40 -6 -10 -5 -32 -6 -49 -2 -17 3 -42 3 -56 0 -14 -4 -34 -3 -46
1 -11 4 -36 4 -55 0 -21 -5 -43 -3 -59 4 -14 7 -63 16 -110 20 -47 3 -107 13
-135 20 -27 8 -100 25 -162 39 -62 14 -192 48 -290 77 -241 69 -285 80 -291
74 -3 -3 1 -5 9 -5 8 0 28 -7 44 -16 54 -28 258 -96 370 -122 22 -6 103 -26
180 -45 77 -20 178 -43 225 -51 47 -8 105 -19 130 -25 55 -12 127 -20 238 -26
46 -2 93 -7 104 -11 11 -3 18 -2 15 3 -3 4 13 7 36 4 l42 -3 -20 23 -20 23 27
-17 c15 -9 46 -17 69 -17 38 0 40 2 28 17 -8 9 0 7 19 -7 30 -22 45 -39 22
-25 -13 8 -72 -4 -66 -14 3 -4 -8 -6 -25 -5 -16 1 -29 -2 -29 -7 0 -4 -7 -6
-15 -3 -8 3 -30 1 -49 -6 -39 -13 -126 -15 -271 -7 l-100 6 65 -14 c36 -8 75
-12 88 -10 12 3 31 1 40 -4 21 -11 279 -24 294 -15 14 9 107 15 119 8 5 -3 3
-14 -6 -26 -11 -17 -12 -25 -2 -37 9 -11 6 -11 -13 2 -29 20 -41 22 -35 5 3
-8 -4 -14 -17 -14 -59 -4 -163 -16 -167 -20 -2 -2 9 -4 25 -5 16 0 48 -2 72
-3 65 -3 178 11 235 30 64 21 63 20 46 41 -13 16 -12 17 4 4 14 -11 20 -12 30
-2 9 10 0 23 -43 63 -30 27 -46 46 -35 43 15 -5 17 -4 6 3 -8 6 -19 8 -25 6
-6 -2 -31 14 -56 37 -25 22 -75 66 -112 96 -63 51 -86 75 -55 57 19 -12 151
-118 158 -128 4 -4 9 -4 13 2 14 23 -107 137 -236 223 -27 17 -51 35 -54 41
-18 28 218 -146 262 -193 37 -40 74 -94 74 -106 -1 -4 -9 2 -19 14 -10 12 -21
20 -24 16 -9 -8 35 -41 48 -36 6 2 20 -5 30 -17 10 -11 15 -20 10 -20 -4 0 -2
-7 5 -15 7 -8 17 -12 23 -8 5 3 7 1 3 -5 -3 -6 4 -18 16 -26 33 -24 47 -19 18
6 -16 14 -19 19 -7 15 28 -10 20 8 -34 75 -103 128 -275 288 -346 321 -13 6
-23 14 -23 19 0 5 6 6 13 2 26 -15 113 -78 122 -89 6 -6 22 -20 38 -29 26 -18
27 -18 28 0 1 11 1 25 0 32 -1 6 4 12 11 12 8 0 7 4 -4 10 -9 6 -19 24 -23 40
-13 60 -158 171 -563 430 -73 47 -185 119 -250 162 -115 75 -119 76 -207 87
-111 14 -156 13 -105 0 33 -9 60 -43 60 -74 0 -18 32 -50 67 -68 43 -23 53
-40 16 -31 -36 9 -128 57 -173 91 l-35 26 38 -36 c20 -20 37 -40 37 -46 0 -13
80 -81 109 -92 13 -5 21 -12 18 -16 -8 -8 -81 22 -137 56 -67 41 -91 47 -52
14 17 -16 32 -32 32 -36 0 -13 35 -49 65 -68 17 -10 23 -19 15 -19 -24 0 -119
48 -161 81 -48 38 -51 28 -5 -16 19 -18 32 -36 28 -40 -4 -5 1 -5 11 -2 10 4
16 3 12 -3 -3 -5 4 -14 15 -20 11 -6 18 -15 16 -19 -3 -4 14 -17 37 -29 60
-31 16 -28 -52 3 -29 14 -82 45 -117 70 -35 24 -64 42 -64 39 0 -8 74 -74 83
-74 5 0 5 -4 2 -10 -3 -5 0 -10 7 -10 8 0 30 -16 50 -35 21 -18 54 -43 75 -55
58 -32 1 -15 -86 26 -40 19 -106 57 -145 85 -39 28 -57 38 -40 22 55 -49 86
-73 105 -84 11 -5 17 -14 14 -19 -3 -5 3 -11 13 -14 10 -4 32 -20 50 -37 17
-16 48 -39 69 -50 35 -17 35 -19 8 -13 -86 19 -170 67 -338 195 -28 21 -53 37
-54 35 -8 -8 11 -36 24 -36 8 0 12 -4 9 -9 -3 -5 5 -12 18 -15 13 -3 42 -21
63 -38 21 -18 50 -41 64 -51 13 -10 18 -15 10 -11 -9 5 -12 3 -7 -4 4 -7 16
-12 27 -12 11 0 18 -4 14 -9 -3 -5 3 -12 14 -16 11 -3 22 -12 25 -20 3 -8 24
-24 46 -35 23 -12 40 -24 37 -26 -8 -8 -126 49 -224 109 -51 31 -93 52 -93 47
0 -6 5 -10 11 -10 5 0 7 -5 3 -12 -4 -7 -3 -8 4 -4 7 4 12 3 12 -3 0 -6 8 -8
18 -4 9 3 14 3 10 -2 -9 -10 69 -73 100 -81 12 -4 22 -12 22 -20 0 -8 5 -14
10 -14 6 0 34 -16 63 -35 28 -19 46 -35 39 -35 -27 0 -269 136 -350 197 -17
13 -37 21 -44 17 -6 -4 -8 -3 -5 3 7 11 -286 208 -638 428 -121 76 -221 142
-223 146 -4 9 -32 14 -112 23 -43 4 -44 4 -12 -6z m1995 -487 c15 -8 27 -18
27 -22 0 -5 -16 1 -35 12 -19 12 -35 23 -35 26 0 2 3 3 8 1 4 -2 19 -10 35
-17z m144 -96 c54 -35 123 -82 153 -103 68 -49 118 -75 129 -67 5 2 12 -6 15
-20 4 -14 11 -25 17 -25 6 0 28 -13 49 -30 21 -16 44 -30 51 -30 7 0 9 -3 6
-7 -4 -3 7 -15 24 -25 17 -11 29 -22 25 -25 -3 -3 -29 12 -58 35 -61 47 -149
107 -338 234 -74 50 -146 99 -159 109 -47 37 -11 18 86 -46z m48 -110 c68 -38
215 -136 215 -142 0 -3 -12 3 -27 13 -16 10 -57 36 -93 58 -116 70 -230 145
-230 151 0 3 19 -7 43 -23 23 -15 65 -41 92 -57z m-260 -3 c-3 -3 -11 0 -18 7
-9 10 -8 11 6 5 10 -3 15 -9 12 -12z m195 -28 c0 -2 -9 0 -20 6 -11 6 -20 13
-20 16 0 2 9 0 20 -6 11 -6 20 -13 20 -16z m70 -41 c0 -7 -39 17 -46 28 -3 6
5 3 20 -6 14 -10 26 -19 26 -22z m145 -88 l30 -25 -37 21 c-21 11 -38 23 -38
25 0 10 17 2 45 -21z m-80 -95 c24 -17 47 -34 50 -40 5 -7 -90 53 -104 66 -15
15 18 -1 54 -26z m215 -60 c0 -15 -5 -12 -26 11 -19 22 -19 22 4 10 12 -6 22
-16 22 -21z m-85 -30 c3 -5 -10 -1 -29 11 -20 12 -36 23 -36 25 0 7 58 -25 65
-36z m85 -61 c3 -3 21 -15 41 -27 20 -12 43 -30 50 -39 8 -9 -21 8 -63 36 -42
29 -82 60 -90 69 -11 13 48 -23 62 -39z m-179 0 l24 -20 -30 17 c-39 24 -40
24 -28 24 6 0 21 -9 34 -21z m149 -25 c0 -2 -13 2 -30 11 -16 9 -30 18 -30 21
0 2 14 -2 30 -11 17 -9 30 -18 30 -21z m190 -87 c13 -5 13 -6 -1 -6 -9 -1 -24
9 -35 22 -19 22 -19 22 1 6 11 -9 27 -19 35 -22z m85 -63 c17 -14 21 -21 10
-15 -11 5 -33 22 -50 36 -16 14 -21 21 -10 16 11 -6 34 -22 50 -37z m-36 -30
c52 -57 66 -88 17 -39 -14 14 -31 23 -36 20 -6 -4 -10 -3 -9 2 3 20 -2 34 -23
53 -12 11 -17 20 -12 20 6 0 34 -25 63 -56z"/>
<path d="M7230 7707 c3 -3 16 -7 30 -9 13 -1 33 -11 43 -21 10 -10 22 -15 27
-12 6 4 10 1 10 -5 0 -6 4 -9 9 -6 4 3 18 -6 31 -19 13 -13 26 -23 29 -21 3 2
15 -6 26 -17 11 -11 14 -17 8 -13 -9 5 -11 2 -6 -9 4 -13 8 -14 14 -4 6 10 11
10 23 0 9 -7 13 -17 10 -22 -3 -5 2 -6 10 -3 9 4 18 -1 22 -10 3 -9 10 -13 16
-10 11 7 54 -36 50 -50 -2 -5 5 -3 14 5 16 12 17 12 11 -3 -4 -12 -2 -15 9
-11 16 6 57 -25 49 -37 -3 -5 5 -6 17 -2 15 4 19 2 14 -7 -5 -8 -3 -11 5 -10
23 4 48 -12 43 -26 -3 -7 0 -16 7 -21 8 -4 10 -3 5 4 -11 19 9 14 34 -8 12
-11 27 -17 31 -14 5 3 9 0 9 -5 0 -6 7 -11 16 -11 9 0 12 -5 8 -12 -5 -7 -3
-8 5 -3 7 4 20 -1 31 -13 29 -31 89 -64 102 -56 8 5 9 2 5 -9 -3 -9 -3 -16 1
-16 19 3 33 -3 60 -26 17 -14 33 -21 37 -16 6 11 -181 144 -502 358 -112 74
-203 136 -203 138 0 2 13 3 29 3 17 -1 29 -5 28 -10 -1 -5 9 -17 23 -26 24
-16 24 -16 11 1 -16 21 1 23 19 2 7 -8 16 -12 21 -9 5 3 9 1 9 -5 0 -6 11 -13
25 -17 14 -3 25 -10 25 -15 0 -5 7 -9 16 -9 8 0 13 -4 10 -8 -3 -5 11 -14 30
-21 18 -7 34 -17 34 -22 0 -6 5 -7 10 -4 6 3 13 -1 16 -9 3 -9 15 -16 26 -16
10 0 17 -3 15 -7 -3 -5 2 -15 11 -23 14 -13 15 -12 9 5 -7 19 -6 19 7 3 7 -10
17 -18 22 -18 5 0 18 -11 28 -25 10 -14 23 -25 28 -25 5 0 29 -13 53 -30 24
-16 48 -30 54 -30 6 0 11 -3 11 -8 0 -4 9 -13 21 -20 17 -11 20 -11 13 0 -6
10 -4 10 9 -1 9 -7 14 -17 11 -22 -3 -5 3 -6 12 -2 13 5 15 3 9 -7 -5 -9 -4
-11 3 -6 7 4 18 4 25 -1 6 -4 18 -8 26 -10 30 -4 -54 58 -409 302 -47 32 -96
67 -110 77 -20 14 -48 20 -112 22 -48 2 -91 7 -96 10 -13 8 -139 21 -132 13z"/>
<path d="M7590 7666 c0 -5 69 -46 77 -46 4 0 -2 7 -13 15 -10 8 -14 15 -7 15
6 0 18 -7 27 -15 8 -8 17 -15 21 -15 4 0 27 -12 53 -27 26 -16 52 -27 58 -25
7 1 14 -7 17 -18 3 -13 13 -20 30 -20 14 0 29 -5 33 -12 5 -8 1 -9 -12 -5 -14
5 -12 2 6 -12 13 -11 27 -19 30 -19 6 1 44 -16 77 -36 13 -7 20 -16 15 -21 -4
-5 -1 -5 6 -1 7 4 12 1 12 -8 0 -15 5 -18 27 -15 4 0 10 -6 13 -15 3 -10 10
-12 19 -7 12 8 -70 78 -190 163 -13 9 -52 37 -87 62 -47 35 -75 48 -110 52
-26 3 -59 7 -74 9 -16 3 -28 3 -28 1z"/>
<path d="M7780 7640 c8 -5 23 -10 33 -10 10 0 16 -4 12 -9 -3 -5 0 -13 6 -17
8 -4 9 -3 5 4 -8 14 3 15 23 3 8 -5 10 -14 6 -21 -5 -9 -4 -11 3 -6 6 4 25 0
42 -9 17 -9 36 -13 42 -9 6 4 8 3 5 -3 -7 -11 13 -33 35 -37 30 -7 50 -20 57
-39 6 -17 9 -18 14 -4 4 11 -15 32 -66 73 -40 32 -74 61 -77 66 -3 4 -26 10
-50 13 -25 3 -58 8 -75 10 -22 4 -26 2 -15 -5z"/>
<path d="M7968 7613 c7 -3 16 -2 19 1 4 3 -2 6 -13 5 -11 0 -14 -3 -6 -6z"/>
<path d="M8004 7601 c0 -15 4 -17 17 -10 23 12 32 11 23 -2 -5 -8 -1 -8 13 0
21 11 43 -2 43 -25 0 -6 14 -17 30 -24 17 -7 39 -23 49 -36 11 -13 22 -24 26
-24 5 0 23 -11 42 -26 18 -14 33 -20 33 -15 0 6 -9 15 -19 21 -11 5 -25 16
-33 23 -62 61 -152 127 -172 127 -14 0 -31 2 -38 5 -9 4 -14 -2 -14 -14z"/>
<path d="M8210 7578 c14 -5 34 -15 45 -20 20 -11 20 -11 1 11 -11 12 -30 21
-45 20 l-26 0 25 -11z"/>
<path d="M8368 7558 c17 -6 32 -15 32 -19 0 -5 10 -13 23 -20 15 -8 12 -2 -11
20 -18 17 -43 31 -55 30 -17 -1 -15 -3 11 -11z"/>
<path d="M8790 7500 c14 -11 31 -20 38 -20 6 0 12 -4 12 -10 0 -5 6 -7 14 -4
8 3 17 0 22 -7 5 -8 3 -10 -7 -4 -12 7 -12 5 -1 -6 10 -11 15 -11 20 -2 6 9
15 7 37 -7 32 -21 27 -27 -6 -10 -10 6 -19 9 -19 6 0 -8 214 -141 223 -138 5
1 6 -2 3 -7 -3 -5 15 -22 41 -37 27 -15 74 -45 106 -66 31 -21 57 -34 57 -28
0 19 17 10 28 -14 6 -14 46 -48 89 -77 43 -29 84 -59 91 -66 17 -17 17 -17 19
6 3 37 -235 233 -471 388 -141 93 -165 106 -220 114 -33 5 -70 9 -81 9 -18 0
-18 -2 5 -20z m380 -220 c0 -5 -4 -10 -10 -10 -5 0 -10 5 -10 10 0 6 5 10 10
10 6 0 10 -4 10 -10z"/>
<path d="M6904 7488 c-4 -7 -3 -8 5 -4 6 4 24 0 39 -9 l27 -16 -24 20 c-27 24
-37 26 -47 9z"/>
<path d="M8976 7482 c33 -24 111 -61 118 -55 10 11 35 -18 29 -34 -5 -11 -3
-14 6 -9 8 5 23 -1 39 -16 15 -14 77 -62 137 -108 61 -46 113 -87 116 -92 3
-5 18 -7 32 -4 15 3 27 0 27 -6 0 -5 -7 -8 -14 -5 -10 4 -13 1 -9 -9 6 -17 11
-18 28 0 22 22 -1 45 -193 188 -97 72 -180 136 -183 140 -3 5 -38 12 -79 17
-63 6 -70 6 -54 -7z"/>
<path d="M8108 7450 c9 -16 25 -30 35 -30 9 0 17 -3 17 -7 0 -5 15 -16 33 -26
27 -15 24 -10 -18 29 -27 25 -58 50 -67 55 -16 9 -16 8 0 -21z"/>
<path d="M9120 7476 c0 -3 17 -17 38 -30 31 -21 60 -31 105 -35 5 -1 5 -6 2
-12 -4 -6 -14 -8 -24 -4 -21 8 -12 0 69 -60 35 -27 75 -49 89 -51 13 -1 28 -7
34 -13 6 -6 16 -6 29 2 17 11 26 5 74 -45 31 -32 60 -58 64 -58 5 0 12 -5 16
-12 5 -7 2 -8 -7 -3 -8 5 -3 -4 10 -18 18 -20 27 -24 33 -15 5 9 8 5 8 -10 0
-13 4 -21 8 -18 5 3 15 -6 22 -20 8 -13 20 -22 27 -20 7 3 15 0 19 -6 4 -7 3
-8 -4 -4 -22 14 -12 -2 28 -42 22 -22 40 -35 40 -28 0 6 7 3 14 -6 7 -10 16
-18 20 -18 4 0 -3 13 -15 30 -12 16 -26 27 -30 24 -5 -3 -6 3 -2 12 5 13 3 15
-7 9 -7 -5 -11 -4 -7 1 6 11 -72 107 -128 156 -22 19 -103 78 -180 132 -165
116 -172 122 -146 122 11 0 17 -5 14 -10 -4 -5 1 -7 10 -3 10 4 16 2 14 -6 -1
-7 4 -11 11 -9 6 1 12 -3 12 -9 0 -5 4 -8 8 -5 12 7 54 -23 47 -34 -3 -5 16
-23 42 -39 38 -24 50 -27 63 -18 13 11 13 10 0 -7 -14 -18 -13 -19 3 -13 10 4
16 3 12 -2 -7 -13 113 -103 127 -95 6 4 8 3 5 -3 -4 -6 2 -18 12 -27 17 -15
19 -15 25 -1 3 9 10 13 16 10 5 -3 10 -3 10 1 0 9 -52 53 -205 173 -132 104
-176 123 -239 107 -14 -3 -27 -2 -31 3 -3 5 -31 13 -63 16 -31 4 -65 9 -74 11
-10 3 -18 3 -18 0z"/>
<path d="M9470 7413 c14 -10 28 -17 33 -15 4 1 7 -2 7 -8 0 -5 3 -9 8 -8 4 0
14 -1 22 -4 8 -4 24 -9 35 -14 11 -4 25 -6 30 -5 6 2 7 -1 3 -5 -4 -4 -2 -14
5 -22 10 -12 5 -12 -23 2 -34 16 -34 16 -12 -1 13 -10 41 -33 62 -50 20 -18
41 -33 44 -33 4 0 26 -19 48 -42 32 -33 42 -39 50 -27 8 12 9 12 5 -1 -7 -25
31 -70 58 -68 27 3 26 4 -34 70 -18 21 -38 35 -44 31 -6 -3 -7 -1 -3 6 7 11
-2 24 -114 147 l-46 51 -80 7 c-78 7 -79 7 -54 -11z"/>
<path d="M9095 7410 c3 -5 11 -10 16 -10 6 0 7 5 4 10 -3 6 -11 10 -16 10 -6
0 -7 -4 -4 -10z"/>
<path d="M8310 7406 c0 -2 7 -9 15 -16 13 -11 14 -10 9 4 -5 14 -24 23 -24 12z"/>
<path d="M9650 7385 c13 -14 30 -25 37 -25 8 0 12 -4 8 -9 -3 -6 3 -8 15 -6
11 2 22 -1 25 -6 4 -5 11 -6 17 -3 7 4 7 0 0 -13 -12 -22 3 -57 20 -47 8 5 9
1 5 -10 -6 -14 -3 -17 9 -12 11 4 15 2 11 -8 -5 -14 30 -55 46 -55 5 1 12 -3
15 -7 4 -4 1 -4 -7 1 -9 5 -12 3 -9 -6 3 -8 12 -13 21 -13 9 1 15 -2 12 -6 -9
-14 7 -41 21 -36 9 3 11 0 7 -11 -5 -12 -3 -14 8 -8 8 4 11 5 7 0 -9 -10 9
-45 24 -45 7 0 6 5 -2 15 -7 9 -11 18 -8 21 6 5 58 -60 58 -73 0 -4 -5 -1 -10
7 -7 11 -10 11 -10 2 0 -16 30 -62 40 -62 5 0 12 9 15 20 13 41 -46 140 -145
243 -51 53 -97 94 -103 90 -5 -3 -7 -2 -4 4 4 6 -12 27 -34 47 -31 27 -49 36
-77 36 l-35 0 23 -25z m178 -170 c-3 -3 -9 2 -12 12 -6 14 -5 15 5 6 7 -7 10
-15 7 -18z"/>
<path d="M9772 7366 c20 -20 41 -36 45 -35 19 3 33 -2 33 -12 0 -8 -5 -8 -15
1 -9 8 -15 8 -15 2 0 -6 9 -14 20 -17 11 -4 18 -10 15 -15 -4 -7 18 -22 37
-24 3 -1 10 -5 15 -10 5 -6 2 -6 -7 -1 -9 5 -7 -1 5 -14 l20 -23 3 21 c2 13
-14 48 -38 87 -37 56 -46 64 -74 64 -17 0 -42 3 -56 6 -23 6 -22 3 12 -30z"/>
<path d="M8356 7365 c4 -8 11 -15 16 -15 6 0 5 6 -2 15 -7 8 -14 15 -16 15 -2
0 -1 -7 2 -15z"/>
<path d="M9889 7361 c7 -12 17 -18 26 -15 8 4 15 2 15 -3 0 -13 53 -41 68 -36
14 6 15 -6 2 -27 -8 -12 -10 -12 -10 -1 0 8 -2 12 -5 9 -8 -8 6 -38 16 -33 4
3 11 -11 15 -30 4 -23 11 -34 19 -31 9 3 11 -2 7 -16 -4 -17 -2 -20 13 -15 12
5 16 3 12 -6 -3 -7 2 -22 10 -32 13 -19 14 -18 8 10 -16 72 -27 98 -36 84 -6
-9 -7 -5 -3 14 3 15 2 27 -4 27 -5 0 -12 10 -16 23 -11 43 -58 85 -104 92 -42
7 -43 6 -33 -14z"/>
<path d="M8110 7364 c0 -7 19 -24 55 -50 57 -39 60 -37 10 9 -47 43 -65 55
-65 41z"/>
<path d="M8230 7366 c0 -2 8 -10 18 -17 15 -13 16 -12 3 4 -13 16 -21 21 -21
13z"/>
<path d="M10020 7330 c24 -34 32 -38 24 -12 -4 9 3 4 14 -12 12 -17 18 -34 15
-39 -3 -4 3 -14 13 -21 10 -8 15 -20 11 -30 -10 -25 2 -19 14 7 9 20 9 20 6
-6 -3 -15 0 -30 4 -33 5 -3 9 -17 10 -32 l1 -27 8 25 c7 23 8 23 9 3 1 -12 3
-27 4 -35 2 -7 2 -10 0 -5 -9 15 -21 6 -16 -13 3 -12 12 -19 22 -18 11 2 18
-7 22 -32 5 -26 7 -28 7 -10 3 62 -62 236 -78 210 -5 -8 -9 -7 -14 5 -8 22 -8
27 3 21 4 -3 -1 15 -12 39 -19 40 -24 45 -55 45 l-33 0 21 -30z"/>
<path d="M10102 7331 c7 -12 21 -24 30 -27 11 -3 15 -11 11 -22 -6 -15 -5 -15
10 -3 16 12 17 12 9 -10 -9 -23 12 -89 31 -97 4 -2 7 -17 7 -33 0 -17 5 -39
11 -50 5 -11 11 -34 13 -52 3 -39 25 -117 32 -117 3 0 2 10 -1 21 -5 16 -4 19
5 14 24 -15 6 150 -29 260 -17 55 -35 106 -40 114 -5 7 -30 16 -56 18 -46 6
-47 5 -33 -16z"/>
<path d="M8270 7326 c0 -2 7 -7 16 -10 8 -3 12 -2 9 4 -6 10 -25 14 -25 6z"/>
<path d="M9716 7318 c3 -5 10 -6 15 -3 13 9 11 12 -6 12 -8 0 -12 -4 -9 -9z"/>
<path d="M10316 7307 c4 -12 10 -24 14 -27 4 -3 10 -12 13 -20 3 -8 6 1 6 21
1 29 -3 38 -19 42 -18 4 -20 2 -14 -16z"/>
<path d="M10377 7235 c4 -60 2 -93 -7 -109 -9 -18 -9 -29 0 -45 6 -12 8 -32 5
-44 -5 -17 -4 -19 4 -7 9 12 11 9 11 -14 0 -16 13 -50 29 -76 32 -52 89 -115
76 -83 -19 48 -25 101 -25 266 0 133 -3 179 -12 182 -7 2 -30 6 -50 10 l-37 6
6 -86z m20 3 c-3 -8 -6 -5 -6 6 -1 11 2 17 5 13 3 -3 4 -12 1 -19z"/>
<path d="M10480 7278 c0 -17 4 -27 10 -23 6 3 10 0 10 -7 1 -12 29 29 30 43 0
4 -11 9 -25 11 -22 5 -25 2 -25 -24z"/>
<path d="M10630 7257 c0 -20 6 -38 13 -41 8 -4 8 -8 2 -11 -6 -3 -9 -22 -7
-43 4 -30 6 -33 13 -17 7 18 8 18 9 -5 l1 -25 10 25 c6 13 7 36 4 50 -4 16 -3
20 3 12 6 -10 11 -1 16 29 4 23 5 43 4 44 -2 2 -18 6 -35 10 -32 6 -33 6 -33
-28z"/>
<path d="M11200 7250 c0 -5 5 -10 11 -10 5 0 7 5 4 10 -3 6 -8 10 -11 10 -2 0
-4 -4 -4 -10z"/>
<path d="M10876 7235 c-4 -11 2 -15 22 -16 l27 -1 -25 -8 c-23 -7 -23 -8 -4
-9 24 -1 40 -27 21 -34 -8 -2 -7 -22 3 -76 8 -45 16 -67 22 -59 5 8 8 2 8 -17
0 -16 5 -37 10 -45 8 -12 10 -8 11 15 l1 30 8 -30 c4 -16 8 -39 8 -50 1 -20 1
-20 -13 -1 -13 17 -15 17 -15 3 0 -9 23 -55 50 -103 28 -48 50 -97 50 -110 0
-12 3 -30 7 -40 6 -16 7 -16 15 2 5 12 6 -2 3 -36 -3 -33 -2 -50 3 -42 7 11
11 10 17 -5 5 -10 7 -24 6 -30 -1 -7 3 -13 10 -13 25 0 -9 221 -41 265 -34 47
-80 148 -81 181 -2 31 10 140 24 218 5 24 -138 34 -147 11z"/>
<path d="M11235 7240 c3 -5 11 -10 16 -10 6 0 7 5 4 10 -3 6 -11 10 -16 10 -6
0 -7 -4 -4 -10z"/>
<path d="M9944 7218 c1 -15 11 -37 21 -48 10 -11 29 -37 41 -58 13 -20 24 -32
24 -26 0 6 -14 31 -32 55 -18 24 -33 49 -34 56 -1 6 -7 19 -12 30 -9 15 -11
14 -8 -9z"/>
<path d="M11070 7226 c0 -3 9 -13 19 -23 22 -21 48 -101 27 -84 -10 9 -17 -1
-31 -46 -13 -41 -15 -58 -7 -61 7 -2 12 -15 12 -28 0 -13 5 -24 10 -24 6 0 9
-3 8 -7 -2 -13 15 -46 49 -94 22 -31 31 -53 26 -65 -4 -12 -3 -15 5 -10 15 9
16 46 2 46 -5 0 -10 11 -10 25 0 14 -4 25 -8 25 -4 0 -15 30 -25 68 -18 72
-20 222 -2 219 5 -1 10 12 10 28 0 28 -3 30 -42 33 -24 2 -43 1 -43 -2z"/>
<path d="M11181 7182 c0 -20 3 -31 6 -24 2 6 9 10 14 6 13 -8 11 -44 -2 -44
-7 0 -9 -10 -4 -27 6 -27 6 -27 -9 -8 -15 19 -15 18 -16 -21 0 -23 -3 -57 -6
-75 -4 -24 -3 -30 4 -20 7 10 12 0 17 -36 7 -51 25 -94 25 -60 0 9 5 17 10 17
6 0 9 45 9 118 -2 102 1 123 20 160 l21 42 -22 1 c-13 0 -33 2 -45 5 -21 3
-23 0 -22 -34z"/>
<path d="M11360 7192 c0 -4 7 -16 16 -27 13 -18 13 -20 -3 -27 -12 -4 -5 -7
22 -9 23 -1 31 -4 18 -6 -23 -5 -44 -48 -42 -92 1 -26 1 -26 12 4 l11 30 6
-35 6 -35 12 53 c7 29 21 71 32 93 16 30 17 40 8 43 -27 9 -98 14 -98 8z"/>
<path d="M11486 7158 c-8 -32 -7 -38 5 -38 5 0 7 5 4 10 -3 6 3 10 15 10 12 0
18 5 15 10 -3 6 -1 10 4 10 6 0 11 5 11 10 0 6 -11 10 -24 10 -16 0 -26 -7
-30 -22z"/>
<path d="M11785 7170 c28 -12 57 -12 50 0 -3 6 -21 10 -38 9 -27 0 -29 -2 -12
-9z"/>
<path d="M11560 7150 c0 -24 35 -28 44 -4 9 23 8 24 -19 24 -18 0 -25 -5 -25
-20z m30 0 c0 -5 -5 -10 -11 -10 -5 0 -7 5 -4 10 3 6 8 10 11 10 2 0 4 -4 4
-10z"/>
<path d="M9735 7139 c1 -11 9 -27 19 -37 16 -16 17 -15 14 17 -3 37 -36 56
-33 20z"/>
<path d="M11743 7143 c9 -2 15 -9 12 -14 -4 -5 -1 -9 4 -9 6 0 11 7 11 15 0 9
-9 15 -22 14 -18 -1 -19 -2 -5 -6z"/>
<path d="M11780 7129 c0 -5 5 -7 10 -4 6 3 10 8 10 11 0 2 -4 4 -10 4 -5 0
-10 -5 -10 -11z"/>
<path d="M9783 7114 c0 -10 4 -25 10 -32 7 -9 5 -11 -9 -5 -17 6 -17 5 -5 -10
7 -9 18 -14 24 -10 6 3 7 1 3 -6 -4 -6 4 -25 18 -42 14 -17 26 -35 26 -40 0
-6 5 -7 10 -4 6 3 10 0 10 -8 0 -8 7 -20 15 -27 12 -10 15 -10 15 1 0 12 2 12
9 0 5 -7 11 -9 14 -4 8 12 -57 112 -114 177 -22 25 -26 26 -26 10z"/>
<path d="M11888 7123 c7 -3 16 -2 19 1 4 3 -2 6 -13 5 -11 0 -14 -3 -6 -6z"/>
<path d="M7265 7106 c11 -8 24 -12 29 -8 5 3 1 9 -10 13 -31 12 -39 10 -19 -5z"/>
<path d="M9846 7101 c-3 -4 6 -20 20 -37 l25 -29 -17 30 -16 30 20 -24 c11
-14 18 -31 15 -38 -3 -7 0 -13 6 -13 6 0 10 -3 9 -7 -4 -12 33 -63 44 -63 6 0
5 7 -2 15 -7 9 -10 18 -7 21 8 9 39 -24 33 -34 -3 -5 1 -9 9 -9 17 0 7 21 -29
60 -14 15 -23 27 -19 27 3 0 -10 17 -28 37 -31 36 -54 49 -63 34z"/>
<path d="M7305 7091 c-4 -7 0 -8 11 -4 12 4 15 3 10 -5 -6 -11 5 -17 27 -13 4
0 7 -4 7 -10 0 -6 7 -8 17 -5 10 4 14 4 10 0 -4 -4 6 -14 21 -22 41 -22 204
-83 209 -78 7 6 -162 95 -220 116 -28 10 -59 21 -68 25 -10 3 -20 2 -24 -4z"/>
<path d="M10090 7088 c0 -8 10 -23 22 -34 l21 -19 -18 30 c-26 41 -25 40 -25
23z"/>
<path d="M11472 7030 c0 -14 2 -19 5 -12 2 6 2 18 0 25 -3 6 -5 1 -5 -13z"/>
<path d="M10060 7033 c0 -6 -3 -20 -6 -30 -5 -15 -4 -16 6 -3 9 12 10 9 7 -15
-2 -16 -2 -24 0 -17 3 7 9 9 15 6 7 -4 8 2 3 17 -10 32 -24 57 -25 42z"/>
<path d="M10121 7015 c0 -5 6 -30 13 -55 8 -25 15 -38 16 -30 0 10 5 6 14 -9
8 -15 16 -20 20 -13 4 6 2 19 -4 29 -5 10 -14 31 -20 46 -5 16 -14 26 -19 23
-5 -4 -12 0 -14 6 -3 7 -6 9 -6 3z m33 -40 c3 -8 1 -15 -4 -15 -6 0 -10 7 -10
15 0 8 2 15 4 15 2 0 6 -7 10 -15z"/>
<path d="M11682 6991 c-2 -28 -4 -32 -17 -21 -8 7 -12 17 -8 24 3 6 -2 4 -12
-6 -16 -15 -16 -21 -4 -70 7 -29 16 -55 20 -58 4 -3 9 -14 11 -25 10 -44 24
52 18 120 -4 39 -8 55 -8 36z m-1 -114 c-10 -9 -11 -8 -5 6 3 10 9 15 12 12 3
-3 0 -11 -7 -18z"/>
<path d="M7815 6984 c17 -9 35 -23 40 -29 6 -7 37 -23 70 -36 33 -12 64 -27
70 -31 5 -4 16 -8 24 -8 21 0 -177 109 -209 116 -23 5 -23 4 5 -12z"/>
<path d="M11030 6975 c0 -8 4 -15 9 -15 5 0 7 -9 4 -20 -3 -11 0 -20 6 -20 6
0 11 -6 11 -14 0 -7 11 -34 25 -60 13 -25 22 -46 19 -46 -2 0 2 -10 10 -22 8
-13 22 -56 32 -96 10 -43 21 -71 28 -69 21 7 1 134 -35 214 -10 24 -19 47 -19
53 0 5 -3 10 -7 10 -5 0 -23 23 -42 50 -37 54 -41 58 -41 35z"/>
<path d="M11320 6971 c0 -12 5 -21 10 -21 6 0 10 6 10 14 0 8 -4 18 -10 21 -5
3 -10 -3 -10 -14z"/>
<path d="M7400 6975 c0 -16 206 -102 218 -91 7 7 -97 58 -158 78 -63 20 -60
20 -60 13z"/>
<path d="M10026 6963 c-6 -14 -5 -15 5 -6 7 7 10 15 7 18 -3 3 -9 -2 -12 -12z"/>
<path d="M7264 6939 c-3 -5 -2 -9 3 -7 4 1 37 -12 73 -29 71 -33 199 -78 205
-71 3 2 -24 18 -58 36 -78 39 -215 83 -223 71z"/>
<path d="M7780 6921 c24 -20 199 -95 206 -89 4 5 -176 95 -206 103 l-25 6 25
-20z"/>
<path d="M11860 6923 c0 -14 -2 -15 -9 -4 -11 17 -23 -1 -15 -23 3 -9 2 -16
-3 -16 -5 0 -8 -13 -5 -30 2 -16 8 -28 12 -25 5 3 11 -8 15 -25 16 -72 45 -27
45 68 0 41 -3 53 -10 42 -8 -13 -10 -13 -10 2 0 23 -20 34 -20 11z m24 -108
c3 -8 1 -15 -4 -15 -6 0 -10 7 -10 15 0 8 2 15 4 15 2 0 6 -7 10 -15z"/>
<path d="M11250 6906 c0 -14 5 -26 10 -26 6 0 10 9 10 19 0 11 -4 23 -10 26
-6 4 -10 -5 -10 -19z"/>
<path d="M10070 6879 c0 -3 9 -22 19 -43 11 -21 23 -63 26 -94 4 -32 13 -71
21 -89 8 -17 14 -38 14 -46 0 -9 5 -19 11 -23 8 -4 9 1 4 16 -5 16 -4 20 5 15
6 -4 10 -18 7 -31 -2 -13 0 -21 4 -18 5 3 9 14 9 24 0 11 5 30 11 44 10 22 8
30 -15 61 -15 19 -32 33 -37 29 -5 -3 -9 -2 -8 3 1 4 1 17 0 28 -1 17 -3 18
-12 5 -8 -12 -10 -9 -6 13 2 15 0 27 -4 27 -5 0 -9 9 -9 20 0 12 -9 30 -20 42
-11 12 -20 20 -20 17z"/>
<path d="M11471 6864 c0 -11 3 -14 6 -6 3 7 2 16 -1 19 -3 4 -6 -2 -5 -13z"/>
<path d="M7735 6855 c64 -30 217 -82 204 -70 -8 7 -61 30 -117 49 -109 38
-138 45 -87 21z"/>
<path d="M10169 6863 c-3 -17 3 -49 11 -58 4 -5 10 -27 14 -47 4 -21 11 -38
15 -38 5 0 14 -13 21 -30 7 -16 17 -30 22 -30 5 0 18 -10 29 -22 17 -21 18
-22 19 -4 0 11 -3 16 -6 13 -4 -4 -18 26 -31 66 -30 91 -64 157 -80 157 -7 0
-14 -3 -14 -7z"/>
<path d="M11271 6844 c0 -11 3 -14 6 -6 3 7 2 16 -1 19 -3 4 -6 -2 -5 -13z"/>
<path d="M11700 6813 c0 -10 5 -25 10 -33 8 -12 10 -9 10 12 0 15 -4 30 -10
33 -5 3 -10 -2 -10 -12z"/>
<path d="M10777 6813 c-4 -3 -7 -11 -7 -17 0 -6 5 -5 12 2 6 6 9 14 7 17 -3 3
-9 2 -12 -2z"/>
<path d="M11446 6803 c-6 -14 -5 -15 5 -6 7 7 10 15 7 18 -3 3 -9 -2 -12 -12z"/>
<path d="M11668 6800 c6 -8 12 -22 12 -32 0 -10 5 -18 10 -18 6 0 10 -7 10
-15 0 -8 9 -19 20 -25 16 -8 20 -8 20 4 0 26 -11 45 -25 40 -7 -3 -16 3 -19
14 -4 11 -14 26 -24 33 -14 11 -15 11 -4 -1z"/>
<path d="M7761 6776 c3 -3 43 -19 89 -36 47 -17 81 -27 75 -22 -5 5 -43 21
-83 35 -72 26 -90 31 -81 23z"/>
<path d="M9680 6770 c0 -5 6 -10 13 -10 9 0 9 -2 0 -8 -9 -6 0 -21 30 -55 23
-25 58 -65 76 -88 19 -23 37 -37 38 -32 2 6 -7 23 -21 37 -15 14 -26 31 -26
39 0 7 -11 24 -25 37 -14 13 -25 29 -25 35 0 12 -41 55 -53 55 -4 0 -7 -4 -7
-10z"/>
<path d="M8230 6687 c35 -18 131 -49 137 -44 2 3 -17 13 -44 22 -26 9 -58 21
-71 26 -35 14 -50 11 -22 -4z"/>
<path d="M8385 6641 c-4 -7 115 -46 170 -56 24 -4 26 -3 10 4 -42 19 -176 58
-180 52z"/>
<path d="M8309 6584 c41 -13 77 -22 79 -19 4 4 -130 46 -144 44 -5 -1 25 -12
65 -25z"/>
<path d="M8628 6563 c7 -3 16 -2 19 1 4 3 -2 6 -13 5 -11 0 -14 -3 -6 -6z"/>
<path d="M9875 6520 c3 -5 8 -10 11 -10 2 0 4 5 4 10 0 6 -5 10 -11 10 -5 0
-7 -4 -4 -10z"/>
<path d="M11056 6494 c-4 -15 -5 -29 -1 -32 3 -3 5 2 5 12 0 9 4 15 9 12 5 -4
7 3 4 14 -7 26 -10 25 -17 -6z"/>
<path d="M8948 6483 c7 -3 16 -2 19 1 4 3 -2 6 -13 5 -11 0 -14 -3 -6 -6z"/>
<path d="M9000 6476 c0 -2 11 -6 25 -8 14 -3 25 -1 25 3 0 5 -11 9 -25 9 -14
0 -25 -2 -25 -4z"/>
<path d="M9910 6470 c0 -5 5 -10 11 -10 5 0 7 5 4 10 -3 6 -8 10 -11 10 -2 0
-4 -4 -4 -10z"/>
<path d="M11066 6455 c-3 -8 -1 -15 4 -15 6 0 10 7 10 15 0 8 -2 15 -4 15 -2
0 -6 -7 -10 -15z"/>
<path d="M9951 6410 c0 -16 22 -50 33 -50 12 0 6 18 -14 41 -13 17 -19 19 -19
9z"/>
<path d="M9942 6366 c13 -19 24 -33 26 -32 5 5 -33 66 -41 66 -4 0 3 -15 15
-34z"/>
<path d="M10085 6381 c-3 -5 -2 -12 3 -15 5 -3 9 1 9 9 0 17 -3 19 -12 6z"/>
<path d="M9907 6373 c-4 -3 3 -17 15 -30 12 -13 16 -23 10 -23 -7 0 -12 5 -12
10 0 16 -30 12 -36 -5 -4 -8 -11 -15 -16 -15 -6 0 -19 -11 -29 -25 -11 -13
-26 -22 -33 -19 -7 3 -19 -2 -26 -11 -10 -12 -10 -15 1 -15 8 0 25 -3 39 -6
17 -4 21 -3 12 3 -9 7 -1 13 28 23 22 7 52 24 66 37 24 22 24 24 9 53 -17 32
-18 34 -28 23z"/>
<path d="M10030 6350 c0 -5 5 -10 11 -10 5 0 7 5 4 10 -3 6 -8 10 -11 10 -2 0
-4 -4 -4 -10z"/>
<path d="M9390 6340 c-11 -7 -7 -10 18 -10 17 0 32 5 32 10 0 13 -30 13 -50 0z"/>
<path d="M9600 6211 l-35 -7 40 -7 c22 -4 78 -6 125 -6 l85 1 -55 13 c-58 15
-103 16 -160 6z"/>
<path d="M13870 5944 l-45 -13 43 5 c28 4 48 1 59 -8 15 -12 15 -11 4 10 -6
12 -13 22 -14 21 -1 -1 -22 -7 -47 -15z"/>
<path d="M8510 5840 c8 -5 24 -10 34 -10 26 0 18 6 -19 14 -22 5 -26 4 -15 -4z"/>
<path d="M12938 5843 c7 -3 16 -2 19 1 4 3 -2 6 -13 5 -11 0 -14 -3 -6 -6z"/>
<path d="M12830 5814 l-35 -14 35 6 c19 3 39 10 45 15 13 13 -3 10 -45 -7z"/>
<path d="M12710 5770 c-23 -14 -5 -23 32 -15 29 7 30 9 13 16 -27 10 -28 10
-45 -1z"/>
<path d="M13238 5773 c7 -3 16 -2 19 1 4 3 -2 6 -13 5 -11 0 -14 -3 -6 -6z"/>
<path d="M12670 5745 c-8 -9 -8 -15 -2 -15 12 0 26 19 19 26 -2 2 -10 -2 -17
-11z"/>
<path d="M13480 5750 c0 -5 4 -10 9 -10 6 0 13 5 16 10 3 6 -1 10 -9 10 -9 0
-16 -4 -16 -10z"/>
<path d="M13070 5724 c-19 -8 -43 -17 -52 -20 -10 -4 -18 -10 -18 -15 0 -5 -9
-9 -19 -9 -20 0 -60 -36 -101 -90 -31 -40 -37 -56 -19 -44 8 4 21 9 30 9 9 1
24 8 32 16 8 8 27 23 41 33 14 10 26 28 26 38 0 12 9 22 21 25 15 4 17 8 8 13
-8 5 4 13 32 21 44 12 67 25 58 33 -2 2 -20 -3 -39 -10z"/>
<path d="M13290 5696 c-73 -29 -109 -51 -110 -69 0 -14 5 -17 23 -11 12 3 29
12 37 18 8 7 38 21 65 31 28 10 55 22 60 28 7 7 6 8 -2 3 -6 -3 -14 -2 -18 4
-8 13 -12 12 -55 -4z"/>
<path d="M13510 5651 c-136 -46 -190 -87 -220 -171 -11 -30 -20 -64 -20 -75 0
-11 -9 -35 -21 -54 -23 -37 -20 -48 9 -32 11 6 22 8 25 5 10 -10 46 16 53 38
3 13 15 35 26 51 13 19 15 27 6 27 -7 0 -2 7 10 16 12 8 22 21 22 27 0 7 9 20
20 30 11 9 17 23 14 31 -3 8 2 17 14 20 11 4 23 13 26 21 3 8 12 15 21 15 8 0
15 7 15 15 0 9 9 15 24 15 14 0 28 5 31 10 3 6 18 10 33 10 21 0 24 2 12 10
-21 13 -36 12 -100 -9z"/>
<path d="M13751 5625 c-51 -14 -95 -26 -98 -28 -2 -2 3 -10 12 -17 9 -7 15 -8
15 -2 0 5 9 8 20 5 11 -3 20 -1 20 4 0 6 27 16 59 23 33 7 62 19 65 26 3 8 4
14 3 13 -1 0 -44 -11 -96 -24z"/>
<path d="M13076 5589 c-14 -17 -26 -38 -27 -47 0 -9 -2 -33 -5 -53 -4 -36 -4
-37 28 -34 21 1 34 8 36 19 2 9 10 16 18 16 13 0 34 35 30 52 0 3 10 18 23 32
14 14 19 26 13 26 -7 0 -12 -4 -12 -10 0 -17 -25 -11 -48 10 -12 11 -23 20
-26 20 -2 0 -16 -14 -30 -31z"/>
<path d="M10140 5596 c0 -2 7 -7 16 -10 8 -3 12 -2 9 4 -6 10 -25 14 -25 6z"/>
<path d="M13609 5579 c-9 -5 -9 -9 -2 -9 6 0 18 -3 27 -6 9 -3 16 -2 16 4 0
15 -25 21 -41 11z"/>
<path d="M10278 5513 c7 -3 16 -2 19 1 4 3 -2 6 -13 5 -11 0 -14 -3 -6 -6z"/>
<path d="M12720 5276 c0 -2 9 -6 20 -9 11 -3 20 -1 20 4 0 5 -9 9 -20 9 -11 0
-20 -2 -20 -4z"/>
<path d="M13598 5013 c6 -2 18 -2 25 0 6 3 1 5 -13 5 -14 0 -19 -2 -12 -5z"/>
<path d="M8315 5090 c3 -5 12 -7 20 -3 21 7 19 13 -6 13 -11 0 -18 -4 -14 -10z"/>
<path d="M7528 4573 c7 -3 16 -2 19 1 4 3 -2 6 -13 5 -11 0 -14 -3 -6 -6z"/>
<path d="M7715 4460 c-3 -6 1 -7 9 -4 18 7 21 14 7 14 -6 0 -13 -4 -16 -10z"/>
<path d="M7740 4450 c-9 -6 -10 -10 -3 -10 6 0 15 5 18 10 8 12 4 12 -15 0z"/>
<path d="M8108 4433 c7 -3 16 -2 19 1 4 3 -2 6 -13 5 -11 0 -14 -3 -6 -6z"/>
<path d="M8900 4297 c25 -15 151 -35 139 -22 -4 3 -33 10 -65 15 -33 4 -68 11
-79 15 -13 4 -11 1 5 -8z"/>
<path d="M8880 4270 c0 -5 5 -10 11 -10 5 0 7 5 4 10 -3 6 -8 10 -11 10 -2 0
-4 -4 -4 -10z"/>
<path d="M7440 4198 c0 -6 -3 -8 -6 -5 -4 3 -16 1 -27 -4 -16 -9 -17 -13 -6
-20 8 -5 19 -9 24 -9 6 0 3 5 -5 10 -8 5 -12 10 -7 11 4 1 10 2 15 3 4 1 16 7
27 13 18 11 18 12 3 13 -10 0 -18 -5 -18 -12z"/>
<path d="M7490 4179 c0 -5 5 -7 10 -4 6 3 10 8 10 11 0 2 -4 4 -10 4 -5 0 -10
-5 -10 -11z"/>
<path d="M7450 4170 c0 -5 5 -10 10 -10 6 0 10 5 10 10 0 6 -4 10 -10 10 -5 0
-10 -4 -10 -10z"/>
<path d="M7390 4151 c0 -10 39 -46 43 -40 2 2 -7 14 -20 26 -13 12 -23 19 -23
14z"/>
<path d="M13527 3319 c7 -7 15 -10 18 -7 3 3 -2 9 -12 12 -14 6 -15 5 -6 -5z"/>
<path d="M11160 2790 c-8 -5 -26 -10 -40 -11 -14 -1 2 -5 34 -10 33 -5 62 -7
64 -4 3 3 -4 5 -16 5 -11 0 -24 5 -28 11 -5 9 1 10 22 5 21 -5 25 -4 14 4 -19
12 -31 12 -50 0z"/>
<path d="M17747 72 c-4 -20 -1 -23 17 -18 11 3 33 6 47 6 15 0 29 6 32 14 4
11 -6 15 -43 18 -44 3 -49 1 -53 -20z"/>
<path d="M17322 68 c3 -25 32 -34 73 -24 25 6 42 46 19 46 -8 0 -14 -7 -14
-15 0 -8 -4 -15 -10 -15 -5 0 -10 7 -10 15 0 8 -4 15 -10 15 -5 0 -10 -7 -10
-15 0 -8 -4 -15 -10 -15 -5 0 -10 7 -10 15 0 8 -5 15 -11 15 -6 0 -9 -10 -7
-22z"/>
<path d="M17450 74 c-11 -13 -10 -18 8 -35 12 -10 17 -14 12 -7 -6 7 -10 15
-10 19 0 8 33 4 48 -5 4 -2 8 4 8 14 0 10 -4 17 -7 14 -4 -2 -10 0 -14 6 -9
15 -31 12 -45 -6z"/>
<path d="M17532 68 c2 -19 10 -24 46 -26 25 -2 42 1 42 7 0 6 -16 11 -36 11
-28 0 -35 3 -30 15 3 9 0 15 -10 15 -10 0 -14 -8 -12 -22z"/>
<path d="M17640 71 c0 -28 70 -45 85 -21 4 6 -8 10 -29 10 -25 0 -36 4 -36 15
0 8 -4 15 -10 15 -5 0 -10 -9 -10 -19z"/>
<path d="M17859 67 c-16 -21 -15 -22 17 -23 19 -1 31 2 28 7 -3 5 2 6 10 3 20
-8 20 3 2 22 -20 20 -38 17 -57 -9z"/>
<path d="M17950 69 c0 -15 4 -19 16 -15 9 3 29 6 45 6 19 0 29 5 29 15 0 11
-12 15 -45 15 -39 0 -45 -3 -45 -21z"/>
<path d="M18060 64 c0 -23 3 -25 42 -22 34 2 42 7 44 26 4 20 0 22 -41 22 -42
0 -45 -2 -45 -26z"/>
<path d="M18165 68 c1 -13 5 -22 8 -20 29 12 38 12 56 2 19 -9 21 -8 21 15 0
23 -4 25 -43 25 -39 0 -43 -2 -42 -22z"/>
<path d="M18274 74 c3 -9 6 -20 6 -25 0 -5 18 -9 40 -9 36 0 40 3 40 25 0 23
-4 25 -46 25 -38 0 -45 -3 -40 -16z"/>
<path d="M18380 70 c0 -21 32 -34 71 -28 17 2 25 10 27 28 2 23 1 24 -11 8 -8
-10 -17 -18 -21 -18 -3 0 -6 8 -6 18 -1 16 -1 16 -14 0 -16 -22 -26 -23 -26
-3 0 8 -4 15 -10 15 -5 0 -10 -9 -10 -20z"/>
<path d="M18498 65 c2 -14 8 -25 13 -25 5 0 9 11 9 25 0 14 -6 25 -14 25 -9 0
-12 -8 -8 -25z"/>
<path d="M18537 69 c-6 -24 8 -32 55 -27 25 2 34 8 36 26 3 20 -1 22 -41 22
-37 0 -46 -4 -50 -21z m66 -6 c-7 -2 -21 -2 -30 0 -10 3 -4 5 12 5 17 0 24 -2
18 -5z"/>
<path d="M18650 64 c0 -23 3 -25 43 -22 35 2 43 7 45 26 3 20 -1 22 -42 22
-43 0 -46 -2 -46 -26z"/>
<path d="M18797 84 c-16 -16 15 -44 48 -44 47 0 54 18 8 23 l-38 4 38 1 c23 1
36 6 32 12 -7 11 -78 14 -88 4z"/>
<path d="M18907 76 c-8 -19 12 -36 43 -36 34 0 54 15 47 34 -8 21 -82 22 -90
2z m66 -13 c-7 -2 -21 -2 -30 0 -10 3 -4 5 12 5 17 0 24 -2 18 -5z"/>
<path d="M19013 69 c-1 -15 2 -19 14 -15 8 4 21 2 28 -4 10 -8 15 -8 20 0 5 8
11 6 19 -5 10 -14 12 -12 14 14 3 34 -8 39 -31 16 -13 -13 -16 -13 -27 0 -18
21 -35 18 -37 -6z"/>
<path d="M18755 50 c3 -5 10 -10 16 -10 5 0 9 5 9 10 0 6 -7 10 -16 10 -8 0
-12 -4 -9 -10z"/>
<path d="M18221 24 c0 -11 3 -14 6 -6 3 7 2 16 -1 19 -3 4 -6 -2 -5 -13z"/>
</g>
</svg>
