<svg id="Layer_1" data-name="Layer 1" xmlns="http://www.w3.org/2000/svg" viewBox="0 0 256 256"><defs><style>.cls-1{fill:#333;}.cls-2{fill:#008fbe;}</style></defs><title>cooleycore</title><path class="cls-1" d="M217.11,113.76a12.16,12.16,0,0,0-14,4.88L167,103.91a7.14,7.14,0,1,0-1.75,4.39L201.35,123a12.15,12.15,0,0,0-.22,3.39l-22.85,6.68a9.31,9.31,0,0,1,1.34,4.53l22.85-6.68a12.18,12.18,0,1,0,14.64-17.18Z"/><path class="cls-1" d="M71.05,111.41l-21.93-7.9A9.36,9.36,0,1,0,47.5,108l22,7.92a6.61,6.61,0,0,1,1.57-4.46Z"/><path class="cls-1" d="M129.09,130.22l6.58,39.89a10.43,10.43,0,0,0-1.74.94l-29.31-26.91a7.25,7.25,0,0,0,.4-.9,8.14,8.14,0,1,0-3.59,4.38l29.28,26.9a10,10,0,0,0-.77,1.73,10.18,10.18,0,1,0,12.88-6.45,10.39,10.39,0,0,0-2.49-.46l-6.59-40a13,13,0,0,1-4.43.86Z"/><path class="cls-2" d="M195.84,164.27a7.52,7.52,0,0,0-4.57-.07l-13.91-20.11a9.7,9.7,0,0,0,1.82-3.2,9.45,9.45,0,0,0-16-9.25L142,120.79a13.27,13.27,0,0,0-25.29-8,12.68,12.68,0,0,0-.34,1.55l-33.26-.7a6,6,0,0,0-.23-.59L113.2,84.24A9.76,9.76,0,1,0,110,80.81L79.62,109.59a7,7,0,1,0-5.36,12.9A7,7,0,0,0,83,118.34l33.25.7a13.23,13.23,0,0,0,8.86,10.52A13.27,13.27,0,0,0,139.86,125L161,135.86a9.36,9.36,0,0,0,12.41,10.88l14,20.17a7.31,7.31,0,0,0-1.19,2.18,7.61,7.61,0,1,0,9.63-4.82Zm-66.53-38.74a8.56,8.56,0,0,1-8.28-6.39,8.53,8.53,0,0,1,.1-4.72c0-.06,0-.12,0-.18a8.56,8.56,0,0,1,16.52,4.35,10.52,10.52,0,0,1-.25,1.08,8.65,8.65,0,0,1-8.13,5.86Z"/></svg>